<svg width="523" height="126" viewBox="0 0 523 126" fill="none" xmlns="http://www.w3.org/2000/svg">
<path d="M318.418 74.7626V40.9461H343.208V46.4669H324.44V55.3198H341.203V60.8386H324.44V69.2418H343.21V74.7626H318.418ZM370.515 51.1909L361.531 62.9263L370.565 74.7626H363.638L357.718 66.906L351.694 74.7626H344.769L353.804 62.8759L344.82 51.189H351.896L357.616 58.6986L363.439 51.189H370.515V51.1909ZM386.729 50.6946C390.042 50.6946 392.802 51.8887 395.159 54.3254C397.47 56.7097 398.671 59.598 398.671 63.0271C398.671 66.4582 397.521 69.3426 395.159 71.7289C392.854 74.1132 390.044 75.3092 386.729 75.3092C383.921 75.3092 381.511 74.5629 379.504 73.1188V86.5465H373.683V51.2394H379.504V52.8832C381.509 51.441 383.921 50.6927 386.729 50.6927V50.6946ZM390.894 68.199C392.25 66.7548 392.903 65.0141 392.901 63.0233C392.901 60.9859 392.248 59.2956 390.894 57.8534C389.538 56.4112 387.882 55.6629 385.875 55.6629C383.115 55.6629 381.007 56.7582 379.502 58.9467V67.0533C381.007 69.2418 383.115 70.3351 385.875 70.3351C387.884 70.3351 389.54 69.6412 390.894 68.199ZM402.846 39.4554H408.668V74.7626H402.846V39.4554ZM425.528 50.6946C429.143 50.6946 432.153 51.8887 434.512 54.2246C436.92 56.5604 438.127 59.4972 438.127 63.0252C438.127 66.6036 436.92 69.5888 434.512 71.9751C432.105 74.3109 429.092 75.507 425.528 75.507C421.916 75.507 418.904 74.3148 416.494 71.9751C414.082 69.5908 412.881 66.6075 412.881 63.0271C412.881 59.4953 414.082 56.5604 416.494 54.2265C418.902 51.8887 421.916 50.6946 425.528 50.6946ZM430.446 68.199C431.704 66.8052 432.354 65.0645 432.354 63.0271C432.354 58.9971 429.542 55.9149 425.528 55.9149C421.462 55.9149 418.652 58.9971 418.652 63.0271C418.652 65.0645 419.305 66.8052 420.56 68.197C421.865 69.5888 423.523 70.2847 425.528 70.2847C427.535 70.2847 429.193 69.5908 430.446 68.199ZM447.866 51.2394V54.2188C450.127 51.9314 452.986 50.7877 456.5 50.7877V56.2096C452.784 56.3608 449.923 57.6518 447.866 60.1388V74.7606H442.043V51.2394H447.866ZM470.603 50.6946C473.915 50.6946 476.676 51.7879 478.836 54.0288C481.044 56.2638 482.148 59.0979 482.198 62.6278C482.198 63.7715 482.148 64.669 482.045 65.2641H463.827C464.583 68.3986 466.942 70.4359 470.754 70.4359C473.112 70.4359 474.719 69.6896 475.572 68.2474H481.745C480.389 72.5741 476.021 75.3092 470.603 75.3092C466.841 75.3092 463.827 74.1675 461.47 71.8278C459.161 69.4919 458.005 66.5571 458.005 63.0271C458.005 59.4953 459.161 56.5604 461.472 54.2265C463.827 51.8887 466.838 50.6946 470.603 50.6946ZM463.781 60.9879H476.327C475.876 57.6053 473.718 55.566 470.305 55.566C466.741 55.566 464.432 57.7565 463.781 60.9879ZM491.938 51.2394V54.2188C494.196 51.9314 497.057 50.7877 500.571 50.7877V56.2096C496.856 56.3608 493.995 57.6518 491.938 60.1388V74.7606H486.115V51.2394H491.938ZM515.928 60.9375C520.646 61.6838 523.006 64.0196 523 67.7492C523 72.6729 518.735 75.507 512.559 75.507C506.539 75.507 502.125 72.8202 501.571 66.8033L506.89 66.8517C507.343 69.488 509.301 70.8314 512.712 70.8314C515.525 70.8314 517.481 69.835 517.481 68.2435C517.481 66.9525 516.528 66.055 514.62 65.7584L509.452 64.9152C504.784 64.1689 502.429 61.833 502.429 58.15C502.429 53.5248 506.394 50.59 512.414 50.59C514.675 50.59 516.782 51.0397 518.94 52.0826C521.098 53.1274 522.655 55.3663 522.905 58.3981L517.536 58.4485C517.332 56.2134 515.275 55.0174 512.414 55.0174C509.756 55.0174 508.149 56.1126 508.149 57.5549C508.149 58.9506 509.251 59.8946 511.509 60.2416L515.926 60.9394L515.928 60.9375ZM184.251 45.7206C187.712 48.8531 189.419 52.8832 189.419 57.708C189.419 62.6317 187.71 66.7083 184.247 69.9397C180.786 73.1711 176.47 74.7626 171.201 74.7626H158.403V40.9481H171.203C176.472 40.9481 180.789 42.5376 184.251 45.7206ZM179.782 65.9116C182.093 63.6726 183.244 60.9375 183.244 57.708C183.244 54.525 182.089 51.8422 179.782 49.7022C177.473 47.564 174.61 46.4707 171.201 46.4707H164.425V69.2418H171.201C174.61 69.2418 177.473 68.1486 179.782 65.9077V65.9116ZM194.343 51.2394H200.115V74.7606H194.343V51.2394ZM224.257 52.5342V51.2355H230.029V74.7568C230.029 78.3875 228.925 81.1731 226.664 83.3112C224.456 85.3989 221.545 86.4942 217.981 86.4942C214.62 86.4942 211.809 85.5966 209.551 83.7609C207.294 81.9194 205.986 79.5835 205.737 76.7476H211.606C212.009 79.4808 214.418 81.2739 217.981 81.2739C221.742 81.2739 224.253 78.8876 224.253 74.7606V71.8258C222.196 73.268 219.788 74.0143 216.927 74.0143C213.667 74.0143 210.854 72.8706 208.497 70.5329C206.19 68.1951 205.035 65.5103 205.035 62.3778C205.035 58.8963 206.19 56.0157 208.448 53.7768C210.755 51.4894 213.566 50.3457 216.931 50.3457C219.79 50.3457 222.199 51.0901 224.257 52.5342ZM224.257 65.71V58.6501C222.699 56.4112 220.541 55.2655 217.781 55.2655C215.724 55.2655 214.066 55.9634 212.764 57.3048C211.459 58.6501 210.808 60.3385 210.808 62.3778C210.808 64.07 211.459 65.6111 212.813 67.0029C213.46 67.6616 214.234 68.1819 215.088 68.5321C215.942 68.8823 216.858 69.0552 217.781 69.0402C220.59 69.0402 222.75 67.9489 224.257 65.71ZM236.104 51.2394H241.876V74.7606H236.104V51.2394ZM257.882 70.1878C259.135 70.1878 260.438 69.9882 261.891 69.5927L262.695 74.5164C260.487 75.1619 258.531 75.5089 256.774 75.5089C251.102 75.5089 247.592 71.7308 247.592 65.7138V42.6423H253.362V51.2432H262.147V56.0661H253.364V65.7138C253.364 68.6952 254.87 70.1878 257.882 70.1878ZM283.327 52.8832V51.2394H289.099V74.7606H283.327V73.1207C281.266 74.5629 278.858 75.3092 276.049 75.3092C272.737 75.3092 269.924 74.1151 267.567 71.7289C265.258 69.3426 264.101 66.4563 264.101 63.0252C264.101 59.5961 265.258 56.7116 267.569 54.3254C269.924 51.8887 272.735 50.6946 276.049 50.6946C278.862 50.6946 281.269 51.441 283.327 52.8832ZM283.327 67.0049V58.999C281.82 56.764 279.662 55.6707 276.903 55.6707C274.897 55.6707 273.238 56.417 271.884 57.8592C270.527 59.2975 269.874 61.0422 269.874 63.0291C269.874 65.0179 270.529 66.7587 271.884 68.2009C273.238 69.6431 274.893 70.339 276.901 70.339C279.662 70.339 281.821 69.2438 283.327 67.0049ZM294.674 39.4554H300.496V74.7626H294.674V39.4554ZM197.229 42.2371C198.823 42.2371 200.115 43.5204 200.115 45.0964C200.115 46.6782 198.823 47.9575 197.229 47.9575C195.633 47.9575 194.343 46.6782 194.343 45.0964C194.343 43.5165 195.633 42.2371 197.229 42.2371ZM238.99 42.2371C240.584 42.2371 241.876 43.5204 241.876 45.0964C241.876 46.6782 240.584 47.9575 238.99 47.9575C237.394 47.9575 236.104 46.6782 236.104 45.0964C236.104 43.5165 237.394 42.2371 238.99 42.2371ZM92.9836 45.2437L93.5182 44.9122C99.6857 41.1051 108.53 36.0224 114.136 31.4787C114.463 31.2143 114.842 31.0216 115.248 30.913C115.654 30.8045 116.078 30.7826 116.493 30.8487C117.178 30.957 117.803 31.3034 118.259 31.827C118.714 32.3506 118.97 33.0179 118.982 33.7118V33.7544C118.982 34.6364 118.583 35.4642 117.894 36.0186C117.094 36.6582 115.734 37.4898 114.363 38.2904C112.995 39.0852 111.631 39.8354 110.886 40.256C105.365 43.3634 99.7109 46.5987 94.2407 49.7312L92.0945 50.9583C84.817 55.126 77.9367 59.063 70.5643 63.1396C70.4288 63.2341 70.2863 63.3183 70.1382 63.3916C69.8137 63.5587 69.4568 63.6533 69.0922 63.6688H69.067C68.8191 63.6692 68.5751 63.6076 68.3572 63.4894C68.1393 63.3712 67.9545 63.2003 67.8195 62.9922L67.804 62.9632L67.7924 62.936C67.6062 62.5862 67.5403 62.1846 67.6051 61.7936C67.6699 61.4025 67.8617 61.0437 68.1508 60.7727C68.3028 60.624 68.4718 60.4939 68.6544 60.385C73.4505 57.5103 78.295 54.4591 82.9807 51.5069L83.4631 51.2025C86.6279 49.2024 89.8014 47.2161 92.9836 45.2437ZM69.2878 61.4298C69.1889 61.4889 69.0967 61.5584 69.0128 61.6373C68.852 61.8001 68.8074 61.9242 68.8036 62.0715C68.8036 62.1568 68.8268 62.2576 68.8772 62.3739L68.9275 62.4204C68.9624 62.4417 68.9973 62.4592 69.0612 62.4592H69.067C69.2416 62.4444 69.4115 62.395 69.5667 62.3138C69.7275 62.2362 69.8554 62.1471 69.8612 62.1413L69.8922 62.1161L69.9309 62.0947C77.3033 58.0201 84.1875 54.0792 91.4746 49.9057L93.6209 48.6806C99.0911 45.548 104.749 42.3089 110.272 39.2015C111.031 38.775 112.385 38.0307 113.737 37.2437C115.085 36.4625 116.435 35.627 117.119 35.0765C117.526 34.7469 117.752 34.2817 117.752 33.7602V33.7331C117.746 33.4087 117.65 33.0926 117.474 32.8201C117.318 32.5769 117.104 32.3769 116.85 32.2387C116.597 32.1004 116.313 32.0284 116.025 32.0292C115.62 32.0297 115.227 32.1693 114.913 32.4246C109.179 37.0711 100.315 42.1557 94.171 45.9493L93.6325 46.2808C90.4809 48.225 87.25 50.2643 84.1216 52.2318L83.6393 52.5362C78.9498 55.4865 74.0994 58.5454 69.2878 61.4298ZM68.4065 55.8471C71.3701 52.699 78.2602 45.6508 94.6204 29.2921C97.8126 26.0975 102.175 21.7515 104.732 19.183C105.245 18.6711 105.934 18.3734 106.658 18.35C107.383 18.3266 108.089 18.5793 108.635 19.057C109.208 19.5591 109.549 20.2705 109.588 21.0265V21.0207L109.592 21.0594V21.1602C109.594 21.5541 109.513 21.944 109.352 22.3037C109.192 22.6635 108.956 22.9847 108.662 23.246L108.408 23.4903L107.486 24.3684C102.919 28.7111 98.3364 33.0364 93.7371 37.3445C85.6829 44.889 76.418 53.4666 71.3701 57.7855C69.9212 59.0242 68.8365 59.9043 68.1643 60.3462C67.9881 60.4626 67.8428 60.5478 67.6839 60.6176C67.5873 60.6618 67.4838 60.6887 67.3779 60.6971L67.2617 60.701C67.06 60.7009 66.8599 60.6648 66.6709 60.5944C66.4079 60.5001 66.181 60.3259 66.022 60.0962C65.8833 59.89 65.8098 59.6469 65.8108 59.3983C65.8108 59.1657 65.8748 58.9137 66.0007 58.6656C66.0258 58.6133 66.0781 58.5163 66.1518 58.402C66.2292 58.2857 66.3338 58.15 66.4946 57.9561C66.8181 57.5665 67.3701 56.9423 68.4065 55.8432V55.8471ZM105.607 20.034C103.043 22.6044 98.6843 26.9504 95.4959 30.1431C79.1376 46.5018 72.2495 53.55 69.3072 56.6767C67.775 58.305 67.312 58.8788 67.1784 59.0804C67.1483 59.1224 67.1224 59.1672 67.1009 59.2142C67.0666 59.2699 67.046 59.3331 67.0409 59.3983L67.0428 59.4177L67.1086 59.4565L67.2384 59.4798L67.2714 59.4642C67.343 59.4255 67.4651 59.3518 67.6065 59.251C67.8951 59.0514 68.2922 58.747 68.7803 58.3554C70.0877 57.2835 71.3735 56.1854 72.637 55.062C76.5195 51.6133 80.3635 48.1212 84.1681 44.5866C92.1295 37.2052 100.041 29.7704 107.903 22.2826C108.05 22.136 108.167 21.9613 108.246 21.7689C108.325 21.5765 108.365 21.3703 108.364 21.1622V21.0808C108.346 20.7691 108.239 20.4691 108.054 20.2173C107.87 19.9654 107.617 19.7724 107.325 19.6616C107.033 19.5509 106.716 19.5271 106.411 19.5932C106.106 19.6593 105.827 19.8124 105.607 20.034ZM125.346 76.3037L125.342 76.3541C125.342 76.6138 125.313 76.8774 125.257 77.1333C125.024 78.1995 124.346 79.1009 123.383 79.5797C122.642 79.948 121.524 80.3415 120.381 80.6904C119.382 81.0014 118.368 81.2589 117.342 81.4619C112.488 82.3099 107.592 82.8923 102.675 83.2065C101.516 83.286 100.358 83.3112 99.2073 83.3112C98.0412 83.3112 96.8809 83.286 95.74 83.2608C94.6213 83.2313 93.5022 83.2145 92.3831 83.2104C91.7962 83.2104 91.2073 83.2162 90.6281 83.2356C89.2529 83.2763 88.1604 83.4139 87.3178 83.6621C86.5274 83.8966 85.9696 84.2203 85.5415 84.6604L85.5454 84.6623L85.4311 84.7747L85.4291 84.7728C84.9856 85.1934 84.6601 85.7478 84.4219 86.529C84.172 87.3626 84.0345 88.4481 83.9957 89.8109C83.9764 90.3885 83.9706 90.972 83.9706 91.5574C83.9706 92.6643 83.9957 93.7808 84.0209 94.8761C84.0461 96.0081 84.0713 97.1557 84.0713 98.3091C84.0713 99.4528 84.0461 100.6 83.9667 101.748C83.6488 106.622 83.0603 111.474 82.204 116.282C82.0684 117.035 81.774 118.163 81.4253 119.293C81.0747 120.421 80.6795 121.536 80.3057 122.268C79.8214 123.222 78.911 123.897 77.834 124.126C77.5745 124.182 77.3091 124.209 77.0418 124.209H76.9953C76.4864 124.202 75.9846 124.088 75.5224 123.875C75.0603 123.661 74.648 123.353 74.3125 122.97C73.8817 122.488 73.5897 121.898 73.4676 121.262C73.3454 120.627 73.3978 119.971 73.619 119.363C74.204 117.744 75.004 114.261 75.1222 112.514C75.4263 108.155 75.4902 103.708 75.4902 99.3132C75.4902 97.7237 75.4825 96.1399 75.4728 94.5717L75.4631 92.6585C75.4534 90.8111 75.3159 88.9056 75.1783 87.0486C75.0466 85.1934 74.9033 83.2744 74.8917 81.3611V81.206C74.8917 79.9402 75.0079 78.8799 75.2733 77.9766C75.4903 77.1885 75.8928 76.464 76.4471 75.8636L76.4413 75.8578L76.5556 75.7454L76.5614 75.7512C77.1704 75.2003 77.9013 74.8017 78.6941 74.5881C79.6083 74.3245 80.6795 74.2082 81.958 74.2082H82.1091C84.0383 74.2237 85.9735 74.3633 87.8485 74.497C89.7236 74.6327 91.6451 74.7684 93.5105 74.78L95.4417 74.7878C97.0223 74.7955 98.6184 74.8033 100.218 74.8033C104.654 74.8033 109.146 74.7413 113.545 74.4408C115.304 74.3284 118.824 73.5297 120.457 72.9501C121.069 72.7274 121.73 72.6736 122.37 72.7944C123.011 72.9151 123.607 73.2059 124.096 73.6363C124.879 74.3187 125.332 75.2743 125.346 76.2998V76.3037ZM124.059 76.8736C124.098 76.701 124.118 76.5246 124.123 76.356V76.3211C124.118 75.985 124.041 75.6539 123.897 75.35C123.754 75.0461 123.547 74.7764 123.29 74.559C122.966 74.2718 122.57 74.0776 122.145 73.997C121.719 73.9165 121.28 73.9526 120.873 74.1016C119.075 74.7316 115.604 75.5186 113.632 75.6601C109.191 75.9644 104.676 76.0284 100.226 76.0284C98.6204 76.0284 97.0223 76.0206 95.4417 76.011L93.5105 76.0013C91.5889 75.9935 89.6403 75.852 87.7671 75.7163C85.894 75.5806 83.9822 75.4449 82.1052 75.4314H81.9638C80.757 75.4275 79.7982 75.5418 79.0466 75.7609C78.3241 75.9702 77.7953 76.2688 77.3711 76.6662C76.9701 77.0829 76.6699 77.6082 76.4568 78.3216C76.2398 79.066 76.1256 80.0197 76.1256 81.2099V81.3514C76.1372 83.2123 76.2747 85.1043 76.4103 86.9613C76.5459 88.8184 76.6892 90.7491 76.697 92.6526L76.7067 94.5659C76.7144 96.1361 76.7222 97.7198 76.7222 99.3132C76.7222 103.717 76.6602 108.191 76.3541 112.596C76.2127 114.55 75.4166 117.988 74.7793 119.768C74.6294 120.172 74.5933 120.609 74.675 121.032C74.7566 121.455 74.9529 121.847 75.2423 122.166C75.711 122.695 76.3309 122.978 77.0205 122.99H77.0515C77.2297 122.99 77.4059 122.97 77.5841 122.933C78.3202 122.772 78.9071 122.332 79.2171 121.72C79.527 121.115 79.9221 120.026 80.2573 118.936C80.5924 117.845 80.881 116.73 81.0011 116.063C81.8108 111.613 82.3996 106.767 82.7483 101.665C82.8258 100.558 82.849 99.4353 82.849 98.3091C82.849 97.1731 82.8238 96.0353 82.7986 94.9032C82.769 93.7882 82.7522 92.6728 82.7483 91.5574C82.7483 90.9623 82.7541 90.3672 82.7735 89.774C82.8141 88.3493 82.9536 87.1707 83.2519 86.1801C83.5328 85.2342 83.9783 84.453 84.6214 83.8559C85.2258 83.2162 86.0161 82.7742 86.973 82.4932C87.9725 82.1985 89.1599 82.0609 90.5952 82.0163C91.1918 81.9969 91.7923 81.9911 92.3909 81.9911C93.5298 81.9911 94.6649 82.0163 95.7729 82.0415C96.9158 82.0667 98.0644 82.0919 99.2131 82.0919C100.346 82.0919 101.479 82.0667 102.595 81.9911C107.467 81.679 112.318 81.1011 117.127 80.2601C117.801 80.1418 118.924 79.8588 120.025 79.5234C121.123 79.19 122.225 78.7985 122.835 78.4922C123.453 78.184 123.899 77.6044 124.059 76.8736ZM120.199 90.1036H120.205V90.1617C120.205 90.7394 120.085 91.3054 119.852 91.8424L119.645 92.3173C119.31 93.0927 118.756 93.7459 118.051 94.1957C116.782 95.004 115.463 95.7542 114.13 96.421C112.319 97.3282 110.31 98.2819 108.449 99.3306C106.611 100.37 104.918 101.508 103.707 102.756C102.448 103.958 101.301 105.635 100.253 107.457C99.1937 109.298 98.231 111.291 97.3167 113.084C96.6359 114.417 95.8859 115.713 95.0698 116.967C94.6146 117.665 93.956 118.215 93.1754 118.547L92.6969 118.75C92.1545 118.983 91.5831 119.101 91.002 119.101H90.9381C89.9304 119.085 88.961 118.713 88.201 118.05C87.8272 117.721 87.4688 117.403 87.2073 116.932C86.9439 116.461 86.8238 115.893 86.8277 115.164C86.8277 114.532 86.909 113.768 87.0737 112.754L87.2073 111.824C87.2771 111.31 87.3739 110.636 87.4785 109.915C87.6916 108.469 87.9376 106.852 88.1216 105.945L88.1507 105.799C88.3715 104.714 88.5923 103.628 88.8325 102.543C89.1618 101.05 89.5686 99.2802 90.0606 97.5182C90.5991 95.5991 91.5114 93.9708 92.7628 92.6914L92.7608 92.6875L92.8712 92.577L92.8751 92.5732L92.8809 92.5674L93.4291 92.0246L93.5415 91.9122L93.5453 91.916C94.8373 90.6754 96.4819 89.7702 98.4189 89.2371C100.097 88.7854 101.788 88.3801 103.488 88.0217C104.586 87.7832 105.681 87.5622 106.775 87.3432L106.921 87.3161C108.288 87.0427 111.294 86.6221 112.856 86.405L113.795 86.2751C114.816 86.1123 115.589 86.0289 116.224 86.0289C116.962 86.0289 117.536 86.1452 118.01 86.4069C118.485 86.6628 118.806 87.0175 119.139 87.3897C119.808 88.1457 120.185 89.1053 120.199 90.1036ZM118.719 91.3674C118.89 90.9739 118.971 90.5766 118.981 90.1656V90.1191C118.967 89.4071 118.699 88.7254 118.225 88.1942C117.906 87.8298 117.681 87.6068 117.431 87.4731C117.179 87.3374 116.854 87.2502 116.234 87.2463C115.705 87.2463 114.984 87.3161 114 87.475L113.036 87.6107C112.517 87.6824 111.835 87.7755 111.11 87.8802C109.665 88.0876 108.03 88.3338 107.174 88.5043L107.029 88.5315C105.935 88.7486 104.846 88.9676 103.759 89.2022C102.26 89.5298 100.493 89.9252 98.7579 90.404C96.9603 90.9003 95.492 91.7222 94.3531 92.8349L94.1187 93.0869L94.0954 93.1101L94.0741 93.1314L94.0354 93.1663L94.0005 93.2051L93.9792 93.2245L93.956 93.2478L93.6964 93.4823C92.5768 94.6144 91.7478 96.0643 91.248 97.8438C90.7637 99.5671 90.3647 101.316 90.0354 102.802C89.7991 103.874 89.5802 104.956 89.3575 106.042L89.3303 106.185C89.0708 107.462 88.6408 110.457 88.4257 111.993L88.2901 112.95C88.1313 113.927 88.0577 114.643 88.0577 115.164C88.0577 115.778 88.1507 116.1 88.2863 116.348C88.4219 116.597 88.6466 116.819 89.0146 117.135C89.557 117.608 90.2543 117.876 90.9594 117.886H91.0039C91.4165 117.886 91.8214 117.804 92.2126 117.634L92.6911 117.43C93.2528 117.19 93.7177 116.8 94.0393 116.308C94.8335 115.086 95.5676 113.819 96.2223 112.535C97.1269 110.758 98.0954 108.752 99.186 106.854C100.244 105.02 101.414 103.291 102.773 101.965L102.783 101.955L102.895 101.843L102.905 101.833C104.244 100.486 105.987 99.3287 107.839 98.28C109.754 97.2022 111.779 96.2388 113.572 95.3432C114.868 94.6938 116.149 93.9669 117.381 93.1799C117.876 92.8601 118.27 92.4006 118.512 91.8404L118.719 91.3674ZM127.163 61.5655H127.166V61.6043C127.166 62.117 127.038 62.6215 126.792 63.0716C126.547 63.5216 126.193 63.9029 125.762 64.1805C125.259 64.5004 124.395 64.9423 123.211 65.4483C122.029 65.9523 120.54 66.5144 118.818 67.0398C115.382 68.0904 111.035 69.017 106.423 69.079C99.5463 69.6896 92.5478 70.0676 85.7546 70.4359C82.8839 70.593 80.0132 70.7461 77.1464 70.9206C75.0641 71.0369 73.7527 71.1978 73.0534 71.5409C72.8703 71.6245 72.7026 71.7385 72.5575 71.8782C72.4105 72.0239 72.2905 72.1945 72.2031 72.3822C72.0888 72.6148 71.99 72.9094 71.9125 73.2835C71.7479 74.026 71.6549 75.065 71.5735 76.4374C71.3992 79.2811 71.2404 82.1268 71.0854 84.9705C70.7174 91.7028 70.3338 98.6367 69.7159 105.452C69.619 112.307 67.5735 118.578 66.051 122.084C65.5416 123.257 65.098 124.112 64.7765 124.61C64.4911 125.039 64.1042 125.39 63.6503 125.632C63.1964 125.875 62.6896 126.001 62.175 126H62.1343C62.0142 126 61.8961 125.99 61.776 125.975H61.7721C61.0307 125.881 60.3486 125.521 59.8529 124.962C59.3572 124.402 59.0817 123.681 59.0777 122.933C59.0777 122.412 59.2094 121.889 59.4728 121.419C59.9377 120.586 60.2089 120.014 60.453 119.384C60.6971 118.754 60.9121 118.05 61.2375 116.992C63.9029 108.331 65.1212 99.3655 66.0394 90.9429C66.3513 88.0837 66.6186 85.1334 66.853 82.5281L66.8607 82.4331C67.1125 79.6863 67.3682 76.8387 67.6743 74.0395C67.8099 72.8106 67.9784 71.7967 68.2515 70.9438C68.5014 70.149 68.8559 69.4919 69.3517 68.9588L69.3421 68.9491L69.4525 68.8406L69.4621 68.8309L69.4757 68.8173L69.5861 68.7088L69.5958 68.7185C70.1343 68.228 70.7968 67.8772 71.5987 67.6271C72.4587 67.3557 73.4815 67.191 74.7212 67.0553C77.5493 66.7548 80.4219 66.5009 83.1938 66.2527L83.2907 66.243C86.1231 66.0017 88.9533 65.7335 91.7807 65.4386C100.28 64.5275 109.33 63.3218 118.068 60.6816C119.137 60.3559 119.846 60.1446 120.484 59.9043C121.191 59.6313 121.878 59.306 122.537 58.9312C122.984 58.6843 123.484 58.5497 123.995 58.5389C124.505 58.5281 125.011 58.6414 125.468 58.8691C126.382 59.3266 127.006 60.2047 127.137 61.2108C127.153 61.331 127.161 61.4492 127.163 61.5655ZM125.094 63.1609C125.351 62.9935 125.562 62.7646 125.709 62.4948C125.855 62.225 125.932 61.923 125.933 61.6159V61.5907C125.929 61.2511 125.831 60.9192 125.65 60.6316C125.47 60.344 125.214 60.1117 124.91 59.9605C124.647 59.8275 124.356 59.7584 124.061 59.7589C123.742 59.7589 123.42 59.8403 123.128 60.0012C122.417 60.4029 121.678 60.7515 120.916 61.0441C120.22 61.3058 119.49 61.5248 118.423 61.8486C109.559 64.5256 100.433 65.739 91.9105 66.6521C89.0127 66.9622 86.0277 67.2258 83.3991 67.4565L83.3023 67.4662C80.5323 67.7143 77.6655 67.9702 74.8549 68.2687C73.6539 68.3986 72.7047 68.5595 71.9687 68.7902C71.2888 69.0034 70.8045 69.267 70.4307 69.6043L70.3958 69.6431L70.3609 69.6702L70.3338 69.6935L70.2796 69.7555L70.2447 69.7846L70.2389 69.7866C69.896 70.1568 69.6307 70.6337 69.4157 71.3082C69.1832 72.0352 69.0205 72.9753 68.8907 74.1675C68.5866 76.953 68.329 79.789 68.0791 82.5416L68.0694 82.6347C67.837 85.24 67.5697 88.1981 67.2559 91.0728C66.3358 99.5167 65.1116 108.558 62.4094 117.345C62.084 118.403 61.8651 119.128 61.5997 119.816C61.3048 120.572 60.9526 121.305 60.546 122.007C60.3867 122.29 60.3027 122.609 60.3019 122.933C60.3019 123.222 60.3678 123.511 60.5034 123.775C60.6597 124.077 60.8958 124.331 61.186 124.509C61.4763 124.686 61.8096 124.781 62.1498 124.783H62.175C62.4843 124.784 62.7893 124.71 63.0627 124.565C63.3361 124.42 63.5695 124.21 63.7421 123.953C64.0016 123.554 64.4375 122.726 64.9237 121.602C65.4176 120.47 65.9697 119.029 66.4888 117.368C67.5251 114.044 68.4336 109.827 68.4917 105.406V105.381L68.4936 105.357C69.1077 98.5688 69.4912 91.6388 69.8612 84.9046C70.02 82.0609 70.175 79.2133 70.3493 76.3657C70.4849 74.2799 70.5992 72.9075 71.0951 71.8607C71.2307 71.5777 71.405 71.3238 71.6123 71.1008L71.6084 71.097L71.6239 71.0814L71.7382 70.969L71.7537 70.9535L71.7575 70.9574C71.9822 70.75 72.2379 70.5813 72.5227 70.4456C72.8733 70.2789 73.2626 70.1607 73.7043 70.0657C74.5837 69.8815 75.6684 69.7943 77.0708 69.709C79.9435 69.5346 82.8161 69.3795 85.6868 69.2244C92.4858 68.858 99.4746 68.482 106.328 67.8714L106.351 67.8675H106.376C113.069 67.7861 119.3 65.7953 122.721 64.3337C123.86 63.849 124.691 63.4148 125.094 63.1609ZM51.4245 91.257L50.1906 93.3931C46.9832 98.8792 43.7955 104.377 40.6274 109.886C40.2051 110.626 39.4458 111.979 38.6439 113.332C37.8381 114.689 37.0013 116.034 36.3524 116.831C35.7926 117.515 34.9538 117.907 34.0667 117.907H34.0241C33.4701 117.899 32.9291 117.738 32.4609 117.442C32.1093 117.22 31.8091 116.926 31.5803 116.579C31.3514 116.232 31.1993 115.84 31.134 115.43C31.0687 115.019 31.0918 114.6 31.2017 114.199C31.3116 113.798 31.5058 113.425 31.7713 113.105C36.3601 107.554 41.4855 98.7879 45.3267 92.6778L45.6637 92.1409C47.6317 89.0142 49.6889 85.8079 51.6763 82.7064L51.9823 82.2295C54.9634 77.583 58.0414 72.7815 60.9431 68.0303C61.0527 67.8494 61.1834 67.6822 61.3324 67.5321C61.5025 67.3557 61.7062 67.2151 61.9314 67.1185C62.1566 67.022 62.3988 66.9715 62.6438 66.97C62.9401 66.97 63.2384 67.0436 63.5154 67.1754L63.5445 67.1871L63.5697 67.2026C63.7788 67.3336 63.9513 67.5156 64.0709 67.7316C64.1905 67.9476 64.2533 68.1905 64.2535 68.4374V68.4645C64.2438 68.891 64.1024 69.2399 63.9726 69.4977C63.868 69.709 63.7673 69.8525 63.7208 69.9222C59.6084 77.2283 55.6317 84.0459 51.4245 91.257ZM39.5562 109.275C42.6942 103.803 45.9601 98.1928 49.131 92.7748L50.3688 90.6483C54.5838 83.4275 58.5586 76.608 62.6709 69.3019L62.6903 69.267L62.7154 69.236V69.2322L62.7251 69.2205L62.7639 69.1624C62.7949 69.1139 62.8394 69.0402 62.8801 68.9588C62.9664 68.8014 63.0192 68.6278 63.0351 68.449V68.4413C63.0367 68.3943 63.0231 68.348 62.9963 68.3094L62.9498 68.261C62.8542 68.2169 62.7509 68.1919 62.6457 68.1873C62.4985 68.1912 62.3707 68.2358 62.2041 68.3947C62.1247 68.4754 62.0551 68.5652 61.9968 68.6622C59.0835 73.427 56.0017 78.2344 53.0206 82.8809L52.7126 83.3577C50.695 86.4906 48.6921 89.6329 46.7039 92.7845L46.3688 93.3175C42.5373 99.4062 37.4061 108.189 32.7204 113.871C32.5645 114.06 32.4503 114.28 32.3855 114.516C32.3207 114.752 32.3068 114.999 32.3446 115.242C32.4221 115.718 32.7049 116.149 33.1195 116.408C33.3984 116.583 33.718 116.68 34.0396 116.684H34.0647C34.3188 116.685 34.5699 116.629 34.7997 116.521C35.0296 116.412 35.2324 116.254 35.3935 116.058C35.9475 115.379 36.7921 114.042 37.5824 112.704C38.3766 111.368 39.1243 110.023 39.5562 109.273V109.275ZM43.1824 87.1028C34.117 96.6788 24.7592 106.342 23.4904 107.637L23.3413 107.788C22.7989 108.321 22.0822 108.6 21.35 108.596L21.2532 108.595H21.2454L21.2106 108.591C20.8335 108.572 20.4639 108.479 20.1229 108.317C19.7819 108.155 19.4761 107.927 19.2232 107.647C18.7407 107.111 18.4845 106.409 18.5083 105.688C18.5321 104.967 18.8342 104.284 19.351 103.781C21.9428 101.244 26.3321 96.9231 29.5534 93.7595C46.0647 77.5443 53.1775 70.719 56.3562 67.7841C58.0201 66.2469 58.5934 65.7798 58.9382 65.551C59.0525 65.4754 59.1513 65.425 59.2036 65.3998C59.431 65.2807 59.683 65.2163 59.9397 65.2118C60.2302 65.2098 60.482 65.3087 60.6467 65.4231C60.9159 65.6014 61.067 65.8495 61.1503 66.0647C61.2207 66.2525 61.2568 66.4515 61.2569 66.6521L61.2549 66.7645C61.2375 66.9002 61.2065 66.9777 61.1755 67.0591C61.1425 67.1369 61.1036 67.2121 61.0593 67.284C60.9556 67.4602 60.8432 67.631 60.7222 67.7958C60.4433 68.1834 60.054 68.6739 59.56 69.2632C58.2417 70.8213 56.8939 72.3543 55.5174 73.8612C51.4509 78.3164 47.339 82.7318 43.1824 87.1028ZM22.8241 106.571C23.0333 106.356 23.3355 106.047 23.7151 105.652C28.1227 101.1 32.5134 96.5317 36.887 91.947C44.5364 83.9315 53.222 74.7161 57.4913 69.8021C58.7058 68.4044 59.5736 67.3402 59.9126 66.8168C59.9668 66.7335 60.0036 66.6637 60.0268 66.623L60.0036 66.495L59.9629 66.4291L59.9435 66.4253C59.9242 66.4253 59.868 66.4291 59.7576 66.4854C59.7107 66.5082 59.6654 66.5341 59.622 66.5629C59.4995 66.6462 59.3812 66.7355 59.2675 66.8304C58.9092 67.1192 58.2913 67.6581 57.1949 68.6739C54.0375 71.5874 46.9228 78.4127 30.4173 94.6241C27.196 97.7876 22.8086 102.107 20.2149 104.646C19.9215 104.93 19.7498 105.318 19.7361 105.726C19.7224 106.135 19.8676 106.533 20.1413 106.836C20.4318 107.158 20.8379 107.351 21.2706 107.373H21.3578C21.5663 107.375 21.773 107.336 21.9662 107.257C22.1594 107.179 22.3351 107.063 22.4832 106.916L22.489 106.91L22.5084 106.891L22.5781 106.823L22.826 106.571H22.8241ZM66.5624 72.2891C66.4986 72.4752 66.4456 72.6649 66.4036 72.8571C63.2888 84.4937 59.6084 96.1361 56.052 107.387L55.7227 108.422C54.2506 113.078 52.1024 118.56 49.563 122.239C49.0206 123.034 48.1121 123.503 47.1417 123.503H47.0971C46.749 123.5 46.4042 123.436 46.0782 123.313C45.5182 123.106 45.0348 122.732 44.6928 122.242C44.3508 121.753 44.1664 121.17 44.1644 120.572C44.1644 119.991 44.3407 119.421 44.6836 118.936C46.5179 116.314 48.2671 111.993 49.5029 108.722C51.3722 103.779 53.3324 98.7394 55.223 93.8661L55.3102 93.6471C58.1518 86.3274 61.0903 78.7597 63.8215 71.3199C64.4477 69.4536 65.4835 67.7513 66.853 66.338L66.851 66.3342L66.9634 66.2217L66.9672 66.2256C68.4015 64.8652 70.1187 63.8391 71.9958 63.221C79.5037 60.5188 87.1395 57.6053 94.5255 54.7867L94.7502 54.7014C99.6702 52.827 104.753 50.8885 109.743 49.0314C113.045 47.8102 117.406 46.0753 120.05 44.257C120.414 44.0047 120.831 43.8389 121.268 43.7724C121.706 43.7059 122.153 43.7403 122.576 43.8732C123.173 44.0545 123.697 44.4212 124.072 44.9203C124.447 45.4193 124.653 46.0247 124.662 46.6491V46.6917C124.662 47.6551 124.183 48.5526 123.385 49.0954C119.67 51.6096 114.136 53.7361 109.439 55.1977L108.397 55.5234C97.0417 59.0475 85.2916 62.6957 73.5493 65.7798C73.3512 65.8308 73.1548 65.8883 72.9604 65.9523L72.4103 66.15C71.1086 66.654 69.9503 67.4003 68.9663 68.3385C68.0131 69.3163 67.2637 70.4741 66.7619 71.7444L66.5624 72.2891ZM65.6133 71.3179L65.621 71.3102C66.1827 69.8874 67.0137 68.6157 68.0481 67.5379L68.0442 67.536L68.1605 67.4236C69.2623 66.383 70.5556 65.5686 71.9687 65.0218L71.9784 65.0179L71.9842 65.0141L72.5653 64.8086L72.5711 64.8047C72.7908 64.7341 73.0123 64.6694 73.2355 64.6109C84.9468 61.5365 96.6775 57.8941 108.03 54.37L109.076 54.0424C113.702 52.6098 119.18 50.4872 122.692 48.0971C122.92 47.9424 123.107 47.7341 123.236 47.4905C123.365 47.2468 123.432 46.9752 123.432 46.6995V46.6704V46.6743C123.429 46.3074 123.309 45.9511 123.088 45.658C122.868 45.3648 122.559 45.1502 122.208 45.046C121.963 44.9695 121.704 44.9497 121.451 44.988C121.198 45.0263 120.956 45.1216 120.745 45.267C117.898 47.2132 113.501 48.9403 110.169 50.179C105.187 52.0322 100.104 53.9706 95.186 55.8451L94.9613 55.9304C87.5734 58.749 79.9299 61.6625 72.4084 64.3744L72.3987 64.3782L72.3929 64.3821C70.6636 64.9479 69.0835 65.8952 67.7692 67.1541C66.5035 68.4503 65.5473 70.0163 64.9721 71.7347L64.9682 71.7444L64.9663 71.7541C62.2293 79.2075 59.2908 86.7791 56.4433 94.1007L56.3581 94.3197C54.4314 99.2613 52.5253 104.211 50.64 109.168C49.3867 112.466 47.6472 116.825 45.6792 119.648C45.5319 119.855 45.435 120.094 45.3964 120.345C45.3577 120.597 45.3783 120.854 45.4564 121.096C45.5343 121.346 45.6688 121.576 45.8496 121.766C46.0303 121.956 46.2524 122.102 46.4986 122.193C46.6909 122.264 46.894 122.302 47.0991 122.305H47.1242C47.4013 122.307 47.6746 122.241 47.9206 122.113C48.1666 121.986 48.3779 121.8 48.5363 121.573C50.9441 118.089 53.0884 112.663 54.5353 108.077L54.8646 107.042C58.421 95.791 62.0956 84.168 65.2007 72.5624C65.2588 72.3395 65.3266 72.1166 65.3963 71.9034L65.4002 71.8975L65.4021 71.8878L65.6133 71.3179ZM75.7381 34.7489L76.9779 32.6262C80.1391 27.2044 83.4049 21.6003 86.541 16.1299C86.9652 15.3933 87.7245 14.0403 88.5245 12.6853C89.3284 11.3284 90.1671 9.9792 90.816 9.18249C91.3739 8.49628 92.2107 8.10471 93.0979 8.10471H93.1424C93.6964 8.11052 94.2368 8.27142 94.7056 8.56994C95.0569 8.79142 95.3568 9.08537 95.5854 9.43215C95.8141 9.77893 95.9661 10.1705 96.0314 10.5808C96.0967 10.9911 96.0737 11.4106 95.964 11.8113C95.8543 12.212 95.6603 12.5847 95.3952 12.9043C90.8064 18.458 85.681 27.2218 81.8379 33.3357L81.5028 33.8707C79.5347 36.9994 77.4776 40.2037 75.4902 43.3052L75.1842 43.7821C72.2031 48.4286 69.1232 53.2302 66.2215 57.9794C66.1126 58.1608 65.9825 58.3287 65.8341 58.4795C65.5567 58.7664 65.194 58.9559 64.8002 59.0195C64.4064 59.083 64.0026 59.0174 63.6491 58.8323L63.622 58.8207L63.5929 58.8052C63.383 58.675 63.2099 58.4931 63.0902 58.2769C62.9705 58.0608 62.9082 57.8175 62.9092 57.5704V57.5413C62.9188 57.1148 63.0602 56.7659 63.19 56.5062C63.2946 56.2968 63.3934 56.1553 63.4438 56.0836C67.5542 48.7756 71.5328 41.9599 75.7381 34.7489ZM65.1677 57.3513C68.083 52.5827 71.1648 47.7753 74.1362 43.1269L74.4442 42.65C76.4594 39.5164 78.461 36.3742 80.449 33.2233L80.7841 32.6902C84.6175 26.6034 89.7468 17.8183 94.4325 12.1367C94.5888 11.948 94.7033 11.7283 94.7684 11.4921C94.8335 11.2558 94.8478 11.0084 94.8102 10.7662C94.7707 10.528 94.6813 10.3008 94.5477 10.0997C94.4142 9.89853 94.2396 9.72798 94.0354 9.59926C93.7593 9.42461 93.44 9.33061 93.1134 9.32788H93.0882C92.8341 9.32693 92.5831 9.38263 92.3532 9.49094C92.1234 9.59924 91.9205 9.75743 91.7594 9.954C91.2054 10.6325 90.3608 11.97 89.5725 13.3075C88.7783 14.6431 88.0286 15.9884 87.5967 16.7386C84.4287 22.2492 81.2403 27.748 78.0316 33.2349L76.7938 35.3634C72.5827 42.5841 68.6079 49.4036 64.4936 56.7097L64.4723 56.7485L64.4472 56.7795L64.4375 56.7911L64.3987 56.8493C64.3677 56.8977 64.3232 56.9714 64.2825 57.0528C64.1973 57.2104 64.1458 57.384 64.1314 57.5626V57.5704C64.1334 57.6324 64.1469 57.6673 64.1702 57.7002L64.2167 57.7506C64.3123 57.7948 64.4156 57.8198 64.5208 57.8243C64.6719 57.8204 64.7958 57.7758 64.9624 57.6169C65.0411 57.5361 65.11 57.4463 65.1677 57.3494V57.3513ZM3.06052 52.3656C2.67614 52.0355 2.36605 51.6277 2.1507 51.1689C1.93534 50.7101 1.81961 50.2109 1.81113 49.7041V49.6537C1.81113 49.3901 1.84019 49.1264 1.89636 48.8686C2.1288 47.8005 2.80677 46.8991 3.76947 46.4203C4.51136 46.052 5.62903 45.6585 6.77188 45.3096C7.77055 44.9986 8.78506 44.7411 9.81109 44.5381C14.6648 43.6901 19.5612 43.1077 24.4783 42.7935C25.6367 42.714 26.795 42.6888 27.9495 42.6888C29.1137 42.6888 30.274 42.7179 31.4149 42.7411C32.519 42.7663 33.6463 42.7915 34.7621 42.7915C35.3548 42.7915 35.9437 42.7857 36.5248 42.7663C37.9001 42.7295 38.9926 42.5919 39.8352 42.3438C40.6235 42.1092 41.1795 41.7855 41.6076 41.3474L41.6037 41.3435L41.7199 41.2311C42.1654 40.8085 42.4908 40.258 42.7272 39.4748C42.979 38.6432 43.1165 37.5596 43.1572 36.195C43.1766 35.6212 43.1824 35.0377 43.1824 34.4542C43.1824 33.3454 43.1572 32.2289 43.132 31.1317C43.1024 29.9863 43.0856 28.8406 43.0816 27.6948C43.0816 26.5511 43.1068 25.4016 43.1862 24.2579C43.5368 19.1113 44.1296 14.2225 44.9489 9.72332C45.0845 8.9712 45.379 7.84302 45.7276 6.71289C46.0782 5.58083 46.4734 4.47203 46.8472 3.73735C47.3296 2.78363 48.24 2.10905 49.315 1.88225C49.5746 1.82409 49.8419 1.79695 50.1034 1.79695H50.1576C50.6663 1.80316 51.168 1.9163 51.6302 2.12902C52.0923 2.34174 52.5047 2.6493 52.8404 3.03175C53.2734 3.51323 53.567 4.10364 53.6899 4.73957C53.8128 5.37549 53.7602 6.0329 53.5378 6.64117C52.9528 8.25978 52.1508 11.7432 52.0346 13.4898C51.7305 17.8513 51.6666 22.2981 51.6666 26.6946C51.6666 28.2802 51.6743 29.8601 51.6821 31.4283L51.6918 33.3415C51.7015 35.1889 51.8409 37.0944 51.9765 38.9514C52.1121 40.8066 52.2554 42.7256 52.2671 44.6389V44.7901C52.2671 46.0598 52.1508 47.1201 51.8855 48.0234C51.6684 48.8115 51.2659 49.536 50.7116 50.1364L50.7174 50.1422L50.6032 50.2546L50.5973 50.2488C49.9883 50.7997 49.2574 51.1983 48.4647 51.4119C47.5543 51.6755 46.4831 51.7918 45.2046 51.7918H45.0497C43.1204 51.7782 41.1872 51.6406 39.3102 51.5069C37.4371 51.3712 35.5156 51.2335 33.6483 51.2238L31.719 51.2142C30.1364 51.2083 28.5422 51.1986 26.9364 51.1986C22.5006 51.1986 18.0125 51.2626 13.6154 51.5631C11.8547 51.6755 8.33701 52.4722 6.70408 53.0518C6.09136 53.2747 5.43003 53.3286 4.78936 53.2078C4.14868 53.0871 3.55029 52.7962 3.06052 52.3656ZM3.09926 49.1284C3.06052 49.3028 3.03921 49.4812 3.04115 49.6595V49.6905C3.05471 50.3748 3.34333 50.9893 3.87407 51.4545C4.19968 51.7409 4.5963 51.9343 5.02232 52.0144C5.44834 52.0946 5.88807 52.0585 6.29537 51.9101C8.09294 51.2801 11.5641 50.4911 13.536 50.3515C17.9776 50.0491 22.4948 49.9852 26.9403 49.9852C28.5481 49.9852 30.1461 49.991 31.7287 50.0007L33.658 50.0104C35.5795 50.0201 37.5282 50.1616 39.4013 50.2953C41.2783 50.4271 43.1862 50.5667 45.0632 50.5783H45.2085C46.4095 50.5803 47.3702 50.4678 48.1237 50.2488C48.8405 50.0394 49.3693 49.7409 49.7935 49.3435C50.1964 48.9229 50.4966 48.3995 50.7078 47.6842C50.9266 46.9379 51.0409 45.9881 51.0409 44.792V44.6525C51.0254 42.7915 50.8879 40.8977 50.7523 39.0426C50.6167 37.1855 50.4734 35.2548 50.4637 33.3512L50.4559 31.438C50.4482 29.8698 50.4385 28.2899 50.4385 26.6965C50.4385 22.2923 50.5024 17.8183 50.8104 13.4103C50.9479 11.4582 51.746 8.01748 52.3814 6.23797C52.5312 5.83422 52.5673 5.397 52.4857 4.9741C52.404 4.55121 52.2078 4.15891 51.9184 3.84009C51.6974 3.58489 51.4248 3.37951 51.1186 3.2375C50.8124 3.09548 50.4796 3.02008 50.1421 3.01625H50.1092C49.9349 3.01625 49.7547 3.03563 49.5804 3.0744C48.8443 3.22948 48.2574 3.67532 47.9475 4.28594C47.6376 4.89074 47.2424 5.98015 46.9073 7.07151C46.6094 8.0148 46.3611 8.97307 46.1635 9.94237C45.3146 14.7059 44.7313 19.5129 44.4163 24.3413C44.3388 25.4481 44.3155 26.5705 44.3155 27.6948C44.3155 28.8288 44.3407 29.9706 44.3659 31.1026C44.3911 32.1998 44.4163 33.328 44.4163 34.4562C44.4163 35.0474 44.4104 35.6425 44.3911 36.2318C44.3465 37.6566 44.2071 38.8351 43.9107 39.8257C43.6279 40.7736 43.1785 41.5606 42.5335 42.1557C41.933 42.7915 41.1407 43.2335 40.1896 43.5126C39.1882 43.8073 38.0008 43.943 36.5654 43.9876C35.9669 44.007 35.3645 44.0128 34.764 44.0128C33.6289 44.0128 32.4919 43.9876 31.3877 43.9624C30.2425 43.933 29.097 43.9162 27.9514 43.912C26.8183 43.912 25.6851 43.9372 24.5655 44.0128C19.6938 44.3247 14.8426 44.9026 10.0339 45.7438C9.35976 45.8621 8.23628 46.1451 7.13604 46.4804C6.03774 46.8119 4.93557 47.2035 4.32734 47.5117C4.0143 47.6716 3.74142 47.9002 3.52909 48.1805C3.31677 48.4608 3.17049 48.7855 3.1012 49.1303L3.09926 49.1284ZM8.01933 38.6122C7.35413 37.8626 6.97717 36.9006 6.9559 35.8984V35.8383C6.9559 35.2606 7.076 34.6946 7.31038 34.1576L7.51764 33.6827C7.85275 32.9073 8.40674 32.2541 9.11182 31.8043C10.3795 30.9954 11.6881 30.2526 13.0324 29.579C14.8416 28.6718 16.8522 27.7181 18.7118 26.6694C20.5423 25.6362 22.2256 24.506 23.4381 23.2635C24.703 22.0616 25.8594 20.379 26.9093 18.5472C27.9689 16.7037 28.9296 14.7129 29.8459 12.9198C30.52 11.5998 31.2754 10.2952 32.0928 9.03711C32.548 8.33926 33.2066 7.79262 33.9873 7.45726L34.4657 7.25372C35.0081 7.02111 35.5795 6.90092 36.1606 6.90092H36.2245C37.2279 6.91449 38.2003 7.28862 38.9616 7.95157C39.3354 8.28111 39.6938 8.60095 39.9553 9.072C40.2187 9.54111 40.3388 10.1091 40.3349 10.8399C40.3349 11.4699 40.2536 12.2356 40.0889 13.2474L39.9553 14.1779C39.8836 14.6935 39.7848 15.3681 39.6802 16.0892C39.4671 17.5353 39.2211 19.152 39.0371 20.0592L39.01 20.2026C38.7872 21.2882 38.5645 22.3757 38.3262 23.4593C37.9969 24.9519 37.5901 26.7256 37.0981 28.4838C36.5596 30.4028 35.6492 32.0311 34.396 33.3125L34.3979 33.3163L34.2856 33.4288L33.7374 33.9715L33.7316 33.9774L33.7277 33.9812L33.6173 34.0917L33.6134 34.0878C32.3233 35.3265 30.6807 36.2318 28.7398 36.7649C27.0617 37.2176 25.3713 37.6235 23.6706 37.9822C22.5723 38.2206 21.4779 38.4397 20.3834 38.6607L20.2382 38.6878C18.8706 38.9592 15.8643 39.3798 14.305 39.597L13.3656 39.7288C12.3428 39.8916 11.5699 39.973 10.9346 39.973C10.1985 39.973 9.62514 39.8567 9.15056 39.597C8.67405 39.3391 8.3525 38.9863 8.01933 38.6122ZM8.44161 34.6364C8.27442 35.0152 8.18673 35.4242 8.18398 35.8383V35.8809C8.19367 36.5846 8.46291 37.2708 8.93943 37.8097C9.26097 38.1741 9.48567 38.397 9.73361 38.5308C9.98543 38.6665 10.3108 38.7537 10.9307 38.7576C11.4556 38.7595 12.1782 38.6878 13.166 38.5269L14.1307 38.3912C14.6498 38.3214 15.3297 38.2265 16.0542 38.1237C17.3717 37.9436 18.6854 37.7355 19.9941 37.4995L20.1394 37.4705C21.2314 37.2572 22.3213 37.0336 23.4091 36.7998C25.0875 36.445 26.756 36.0442 28.4125 35.5979C30.2081 35.1036 31.6744 34.2817 32.8134 33.1729C32.8909 33.0954 32.9645 33.0081 33.0497 32.9151L33.073 32.8938L33.0943 32.8705L33.133 32.8375L33.1679 32.7988L33.1892 32.7774L33.2124 32.7542C33.3074 32.6728 33.3887 32.5952 33.4681 32.5216C34.5916 31.3914 35.4207 29.9395 35.9204 28.1581C36.4047 26.4367 36.8076 24.6882 37.133 23.2014C37.3654 22.1275 37.5882 21.0459 37.811 19.9623L37.8381 19.8169C38.0976 18.5414 38.5277 15.5465 38.7427 14.0093L38.8783 13.0536C39.0371 12.0747 39.1107 11.3613 39.1107 10.8399C39.1107 10.2254 39.0197 9.90166 38.8821 9.65548C38.7466 9.40735 38.5219 9.18443 38.1558 8.86846C37.6153 8.39682 36.926 8.13116 36.209 8.11828H36.1606C35.75 8.11828 35.3451 8.19969 34.9519 8.37028L34.4754 8.57382C33.9228 8.80447 33.4519 9.19538 33.1233 9.69618C32.3291 10.9155 31.595 12.1852 30.9403 13.4684C30.0357 15.246 29.0672 17.2523 27.9766 19.1481C26.9171 20.9838 25.749 22.711 24.3892 24.0389C24.3854 24.0427 24.3815 24.0466 24.3776 24.0505L24.2614 24.1629C24.2614 24.1668 24.2575 24.1687 24.2536 24.1726C22.9151 25.5218 21.1718 26.679 19.32 27.7258C17.4062 28.8036 15.3801 29.767 13.5864 30.6645C12.2924 31.312 11.0101 32.0408 9.7801 32.8278C9.28228 33.1438 8.88906 33.6032 8.64693 34.1634L8.44161 34.6364ZM4.62952 67.0708C4.15962 67.3268 3.63426 67.4639 3.09926 67.4701C2.61694 67.4701 2.13655 67.3577 1.69684 67.1367C1.24784 66.9133 0.860558 66.5829 0.569069 66.1746C0.277579 65.7662 0.0908083 65.2925 0.0251815 64.795V64.7911C0.0104416 64.6741 0.00203553 64.5563 0 64.4383L0 64.3938C0 63.3489 0.528811 62.3739 1.40241 61.8156C1.90604 61.4996 2.76803 61.0577 3.95156 60.5517C5.13315 60.0477 6.62467 59.4856 8.34476 58.9602C11.7811 57.9057 16.1297 56.983 20.7399 56.921C27.6163 56.3104 34.6168 55.9324 41.408 55.5641C44.2807 55.407 47.1494 55.2539 50.0162 55.0794C52.0985 54.9631 53.4099 54.8022 54.1092 54.4591C54.2982 54.3737 54.4706 54.2555 54.6186 54.1102C54.7597 53.9662 54.875 53.799 54.9595 53.6159C55.0758 53.3833 55.1726 53.0906 55.2501 52.7165C55.4128 51.974 55.5039 50.935 55.5872 49.5626C55.7615 46.7189 55.9184 43.8732 56.0733 41.0295C56.4433 34.3011 56.8288 27.3633 57.4448 20.5516C57.5397 13.6972 59.5871 7.42431 61.1077 3.91957C61.6171 2.7468 62.0607 1.89 62.3842 1.39182C62.9498 0.523385 63.9338 0.00387692 64.9857 0H65.0302C65.8403 0.00610868 66.6154 0.331407 67.1876 0.905415C67.7597 1.47942 68.0828 2.25591 68.0869 3.06665C68.0869 3.58809 67.9532 4.11148 67.6898 4.58058C67.2249 5.41412 66.9537 5.98597 66.7096 6.61597C66.4655 7.24597 66.2505 7.94963 65.9251 9.00803C63.2598 17.6691 62.0414 26.6345 61.1251 35.0571C60.8269 37.8593 60.5557 40.6644 60.3116 43.4719L60.3019 43.5669C60.054 46.3137 59.7983 49.1613 59.4922 51.9605C59.3566 53.1894 59.1881 54.2033 58.915 55.0562C58.6651 55.851 58.3106 56.5081 57.8147 57.0412L57.8244 57.0509L57.5804 57.2912L57.5707 57.2815C57.0322 57.772 56.3697 58.1248 55.5678 58.3729C54.7077 58.6443 53.685 58.809 52.4433 58.9447C49.6191 59.2491 46.7446 59.503 43.9727 59.7492L43.8758 59.7589C41.2453 59.9915 38.27 60.2551 35.3839 60.5653C26.8841 61.4744 17.8343 62.6782 9.09826 65.3223C8.02902 65.6479 7.32006 65.8573 6.68278 66.0996C5.97526 66.372 5.28895 66.6966 4.62952 67.0708ZM1.24358 64.638C1.3027 65.0878 1.52429 65.5003 1.86651 65.7978C2.20873 66.0953 2.64792 66.2571 3.1012 66.2527C3.42081 66.2527 3.74429 66.1713 4.03485 66.0124C4.74549 65.61 5.48486 65.2608 6.24694 64.9675C6.94428 64.7039 7.67454 64.4887 8.73991 64.165C17.6038 61.488 26.7311 60.2726 35.2541 59.3615C38.1519 59.0514 41.1369 58.7877 43.7654 58.5551L43.8623 58.5454C46.6322 58.2973 49.4971 58.0434 52.3097 57.7429C53.5126 57.615 54.4617 57.4521 55.1959 57.2234C55.8738 57.0102 56.3581 56.7465 56.73 56.4073L56.7649 56.3666L56.7997 56.3356L56.8288 56.3123L56.883 56.2542L56.9179 56.2251L56.9237 56.2231C57.2666 55.8529 57.5319 55.3722 57.7469 54.6976C57.9794 53.9706 58.1421 53.0305 58.2719 51.8383C58.576 49.0547 58.8336 46.2168 59.0816 43.4661L59.0913 43.3731C59.3256 40.7658 59.591 37.8097 59.9048 34.935C60.823 26.4891 62.0491 17.4462 64.7513 8.66105C65.0767 7.60458 65.2936 6.8796 65.561 6.18951C65.8244 5.49942 66.1343 4.85778 66.6147 3.99905C66.7739 3.71616 66.858 3.39713 66.8588 3.07246C66.8583 2.5818 66.6635 2.11132 66.3172 1.76401C65.9709 1.41669 65.5011 1.22083 65.0108 1.21929H64.9876C64.6784 1.21803 64.3737 1.2933 64.1007 1.43839C63.8276 1.58348 63.5946 1.79389 63.4225 2.05089C63.1629 2.44828 62.7251 3.276 62.2389 4.40225C61.745 5.53431 61.1929 6.97458 60.6757 8.63585C59.6375 11.9603 58.729 16.1765 58.6729 20.5981V20.6233L58.669 20.6446C58.0549 27.4331 57.6714 34.3631 57.3014 41.0993C57.1426 43.943 56.9876 46.7906 56.8152 49.6382C56.6796 51.722 56.5634 53.0964 56.0675 54.1432C55.9319 54.4262 55.7576 54.6801 55.5523 54.903L55.5542 54.905L55.5387 54.9205L55.4244 55.0329L55.4089 55.0504L55.407 55.0465C55.1788 55.2551 54.9201 55.4276 54.6399 55.5582C54.262 55.7296 53.8655 55.8564 53.4583 55.9362C52.5809 56.1223 51.4942 56.2096 50.0937 56.2949C47.2192 56.4674 44.3465 56.6244 41.4758 56.7775C34.6768 57.1458 27.6841 57.52 20.8309 58.1325L20.8057 58.1345H20.7844C14.0919 58.2159 7.8605 60.2086 4.43969 61.6683C3.30459 62.1548 2.46779 62.5852 2.06682 62.841C1.80878 63.0094 1.59688 63.2396 1.4504 63.5108C1.30391 63.782 1.22749 64.0855 1.22808 64.3938V64.419C1.22808 64.4907 1.23389 64.5624 1.24358 64.638ZM34.179 80.7582L33.6405 81.0917C27.473 84.8988 18.6285 89.9814 13.0246 94.5252C12.6972 94.7886 12.3183 94.9808 11.9124 95.0892C11.5065 95.1977 11.0824 95.2202 10.6673 95.1552C9.98262 95.0464 9.35812 94.6999 8.90332 94.1764C8.44852 93.6528 8.19247 92.9857 8.18011 92.2921V92.2475C8.18011 91.3694 8.57526 90.5397 9.26872 89.9834C10.0687 89.3437 11.4305 88.514 12.7999 87.7154C14.1675 86.9167 15.5312 86.1685 16.2769 85.7478C21.7975 82.6405 27.4517 79.4033 32.9238 76.2707L35.0681 75.0456C42.3475 70.8779 49.2279 66.9409 56.5983 62.8643C56.6661 62.8158 56.8152 62.7189 57.0264 62.6123C57.2898 62.4882 57.6404 62.3429 58.0666 62.3332H58.0956C58.3436 62.3329 58.5878 62.3949 58.8057 62.5134C59.0236 62.6319 59.2084 62.8032 59.3431 63.0116L59.3586 63.0388L59.3721 63.0678C59.5564 63.4182 59.6212 63.8192 59.5565 64.2098C59.4918 64.6004 59.3012 64.9591 59.0138 65.2312C58.8617 65.3792 58.6926 65.5086 58.5101 65.6169C53.714 68.4917 48.8676 71.5428 44.1819 74.4951L43.7015 74.8014C40.536 76.8009 37.3618 78.7865 34.179 80.7582ZM57.8748 64.576C57.9705 64.5186 58.0606 64.4524 58.144 64.3782C58.3048 64.2115 58.3494 64.0875 58.3532 63.9382C58.3494 63.8341 58.3244 63.7318 58.2796 63.6378L58.2293 63.5912C58.19 63.5644 58.1432 63.5508 58.0956 63.5525H58.0898C57.9208 63.5666 57.7562 63.6141 57.6055 63.692C57.4975 63.7428 57.3938 63.8024 57.2956 63.8704H57.2917L57.2608 63.8956L57.2259 63.915C49.8535 67.9896 42.9693 71.9324 35.6822 76.1059L33.5359 77.331C27.9976 80.5118 22.4474 83.6715 16.8852 86.8101C16.1297 87.2366 14.7738 87.981 13.4237 88.768C12.0755 89.5472 10.7234 90.3846 10.0416 90.9332C9.84262 91.0901 9.68211 91.2904 9.57233 91.5189C9.46255 91.7473 9.40641 91.9979 9.40819 92.2514V92.2766C9.41488 92.6003 9.51146 92.9158 9.68712 93.1877C9.84262 93.4309 10.0569 93.6308 10.3102 93.7691C10.5635 93.9073 10.8475 93.9794 11.136 93.9786C11.5351 93.9786 11.9302 93.8409 12.2459 93.5831C17.9796 88.9366 26.8435 83.852 32.9897 80.0604L33.532 79.727C36.6797 77.7808 39.9126 75.7415 43.0429 73.772L43.5233 73.4677C48.2129 70.5174 53.0651 67.4604 57.8748 64.576ZM32.4202 71.2947C27.5021 73.1711 22.4173 75.1115 17.4178 76.9705C14.1171 78.1937 9.75686 79.9286 7.11086 81.7469C6.74673 81.9989 6.32987 82.1643 5.8921 82.2305C5.45433 82.2967 5.00724 82.2619 4.58497 82.1287C3.99015 81.9464 3.46821 81.5805 3.09384 81.0832C2.71947 80.586 2.51186 79.9831 2.50071 79.3606V79.3567V79.3102C2.50071 78.3468 2.97529 77.4493 3.77529 76.9065C7.49052 74.3943 13.0246 72.2678 17.722 70.8062L18.766 70.4805C30.119 66.9564 41.8691 63.3063 53.6133 60.2241C53.8148 60.1698 54.0143 60.1136 54.2041 60.0497L54.7503 59.8558C56.0273 59.3579 57.1951 58.6159 58.1886 57.6712C59.1429 56.6928 59.8935 55.5344 60.3968 54.2634L60.5963 53.7167C60.6544 53.5326 60.7164 53.3348 60.7707 53.1352C63.8835 41.4966 67.5638 29.8542 71.1202 18.6034L71.4495 17.5683C72.9217 12.916 75.0718 7.43012 77.6093 3.75286C78.1517 2.96003 79.0621 2.48898 80.0306 2.48898H80.0771C80.4258 2.49286 80.7667 2.55877 81.096 2.68089C81.6553 2.88888 82.1379 3.26276 82.4792 3.75256C82.8205 4.24237 83.0042 4.82475 83.0059 5.42188C83.0059 6.00342 82.8296 6.57138 82.4868 7.05794C80.6524 9.68068 78.9033 14.0015 77.6674 17.2717C75.7982 22.2148 73.8399 27.2548 71.9474 32.1281L71.8621 32.351C69.0205 39.6687 66.0801 47.2364 63.3489 54.6762C62.7227 56.5425 61.6868 58.2448 60.3174 59.6581L60.3213 59.662L60.205 59.7744V59.7725C58.7703 61.1331 57.0524 62.1592 55.1746 62.7771C47.6666 65.4812 40.0308 68.3909 32.6449 71.2094L32.4202 71.2947ZM6.42128 80.7408C9.26872 78.7926 13.6658 77.0655 16.9975 75.8287C21.9796 73.9756 27.0623 72.039 31.9805 70.1626L32.2052 70.0793C39.5911 67.2607 47.2366 64.3472 54.7581 61.6353L54.7639 61.6314L54.7736 61.6276C56.5028 61.0618 58.083 60.1145 59.3973 58.8556C60.6633 57.5604 61.6196 55.995 62.1944 54.2769L62.1963 54.2672L62.2002 54.2575C64.9372 46.8042 67.8757 39.2325 70.7232 31.911L70.8084 31.688C72.7351 26.7465 74.6412 21.7969 76.5265 16.8394C77.7759 13.5421 79.5154 9.18249 81.4853 6.36009C81.6323 6.15263 81.7288 5.91367 81.7672 5.66226C81.8055 5.41085 81.7846 5.15395 81.7062 4.91206C81.6283 4.66139 81.4938 4.43204 81.313 4.24177C81.1323 4.0515 80.9102 3.90544 80.664 3.81489C80.4718 3.74333 80.2687 3.7053 80.0636 3.70246H80.0384C79.7613 3.701 79.488 3.76692 79.242 3.89456C78.996 4.0222 78.7847 4.20774 78.6263 4.4352C76.2185 7.91668 74.0742 13.3405 72.6273 17.9269L72.298 18.964C68.7416 30.2148 65.067 41.8378 61.9639 53.4434C61.9019 53.6663 61.8399 53.8892 61.7663 54.1025L61.7644 54.1102L61.7605 54.118L61.5513 54.6879L61.5493 54.6976C60.9937 56.1017 60.1685 57.3833 59.1203 58.4698L59.1242 58.4718L59.0099 58.5861L59.008 58.5822C57.9056 59.6222 56.6124 60.4384 55.1997 60.9859L55.1939 60.9898L55.1881 60.9937L54.607 61.2011L54.5993 61.203C54.3843 61.2728 54.1634 61.3387 53.9349 61.3969C42.2235 64.4713 30.4928 68.1137 19.1379 71.6397L18.0939 71.9654C13.4643 73.3998 7.99028 75.5205 4.47456 77.9106C4.24644 78.0653 4.0597 78.2736 3.9307 78.5173C3.8017 78.7609 3.73437 79.0325 3.73461 79.3083V79.3315C3.73826 79.6982 3.85906 80.054 4.07933 80.347C4.29961 80.64 4.6078 80.8548 4.95881 80.9598C5.20324 81.0366 5.46189 81.0567 5.71524 81.0188C5.96859 80.9808 6.21001 80.8858 6.42128 80.7408Z" fill="white"/>
</svg>
