<svg width="167" height="82" viewBox="0 0 167 82" fill="none" xmlns="http://www.w3.org/2000/svg">
<g clip-path="url(#clip0_2491_85)">
<path d="M4.67509 33.4553C4.67509 31.5898 4.26776 30.128 3.44861 29.0657C2.62945 28.0076 1.47991 27.4765 0.0045166 27.4765V24.8418C1.48443 24.8418 2.63398 24.2851 3.44861 23.1675C4.26776 22.0543 4.67509 20.6903 4.67509 19.0797V6.47182C4.67509 4.71683 5.14123 3.31029 6.07807 2.24796C7.0149 1.18986 8.41335 0.658691 10.2825 0.658691H17.3518V3.78622H15.3061C14.2561 3.78622 13.4867 4.04118 12.9979 4.55112C12.5091 5.06104 12.2693 5.89816 12.2693 7.06248V19.0712C12.2693 20.2738 12.0656 21.2936 11.6583 22.1264C11.251 22.9593 10.7215 23.6434 10.0834 24.1747C9.44069 24.7015 8.74826 25.101 8.01056 25.3773C7.26833 25.6492 6.54875 25.8235 5.84726 25.8957V26.2229C6.50802 26.2951 7.21856 26.4779 7.97887 26.7668C8.7392 27.0601 9.44069 27.4935 10.0834 28.0755C10.726 28.6577 11.251 29.376 11.6583 30.2301C12.0656 31.0842 12.2693 32.0954 12.2693 33.2598V45.2685C12.2693 46.3946 12.5046 47.2233 12.9708 47.7501C13.4369 48.2771 14.238 48.5406 15.3649 48.5406H17.3518V51.6681H10.2825C8.53102 51.6681 7.15519 51.1836 6.16406 50.2148C5.17292 49.2459 4.67509 47.8096 4.67509 45.9103V33.4596V33.4553Z" fill="white"/>
<path d="M27.3353 34.4964C27.7653 34.9001 28.3673 35.2741 29.1457 35.6224C29.9241 35.9709 30.956 36.1452 32.2413 36.1452C34.382 36.1452 36.1651 35.6224 37.5862 34.5813C39.0072 33.5402 39.7178 32.0869 39.7178 30.2215C39.7178 28.8701 39.2607 27.7356 38.3465 26.8221C37.4323 25.9083 36.2737 25.067 34.8707 24.2979C33.4678 23.5287 31.9697 22.7723 30.3721 22.0202C28.7746 21.2723 27.2766 20.3842 25.8736 19.3601C24.4707 18.3361 23.312 17.1207 22.3978 15.7141C21.4837 14.3076 21.0264 12.5611 21.0264 10.4747C21.0264 8.6857 21.375 7.13044 22.0765 5.81313C22.7779 4.49583 23.7419 3.40799 24.9684 2.54961C26.1949 1.69125 27.6477 1.04959 29.3222 0.628906C30.9966 0.208218 32.807 0 34.7531 0C37.1291 0 39.3377 0.157226 41.3833 0.467431C43.4289 0.777634 45.2663 1.26206 46.9048 1.92072C46.864 2.6516 46.7961 3.49298 46.701 4.44484C46.6016 5.3967 46.4748 6.3358 46.3209 7.27066C46.167 8.20127 45.9996 9.0809 45.823 9.90528C45.6466 10.7296 45.4836 11.4138 45.3252 11.962H42.9311L40.2338 4.44909C39.7631 4.22812 39.0706 4.0284 38.152 3.84568C37.2332 3.66295 36.2828 3.56946 35.3052 3.56946C33.6625 3.56946 32.273 3.97316 31.1415 4.77628C30.0056 5.57941 29.4398 6.75225 29.4398 8.28626C29.4398 9.67581 29.9105 10.8571 30.8474 11.826C31.7842 12.7948 32.9564 13.683 34.3639 14.4861C35.7715 15.2892 37.3055 16.0881 38.9621 16.87C40.623 17.6561 42.1527 18.5613 43.5601 19.5853C44.9677 20.6094 46.1398 21.8078 47.0767 23.176C48.0135 24.5486 48.4842 26.2399 48.4842 28.2497C48.4842 31.9043 47.1717 34.7301 44.5422 36.723C41.9129 38.716 38.0478 39.7103 32.9473 39.7103C31.7027 39.7103 30.4446 39.6381 29.1819 39.4893C27.9147 39.3449 26.7199 39.1409 25.5885 38.886C24.457 38.6309 23.4569 38.3548 22.5788 38.0616C21.7008 37.7683 21.0492 37.4582 20.6238 37.1309C20.66 36.2895 20.7595 35.3845 20.9179 34.4155C21.0717 33.4468 21.2392 32.4779 21.4158 31.5091C21.5922 30.5402 21.7778 29.6181 21.9723 28.7385C22.167 27.8588 22.3617 27.094 22.5562 26.4353H24.9503L27.3444 34.4964H27.3353Z" fill="white"/>
<path d="M82.3006 27.5316H84.6947C84.8486 28.1181 84.998 28.8192 85.1337 29.6436C85.2695 30.468 85.3872 31.3433 85.4821 32.2781C85.5772 33.2088 85.6496 34.1351 85.6858 35.0487C85.7221 35.9624 85.7447 36.7868 85.7447 37.5176C84.3824 38.3208 82.6762 38.8903 80.6351 39.2174C78.5895 39.5446 76.4986 39.7103 74.3579 39.7103C71.1265 39.7103 68.1939 39.3364 65.5689 38.5842C62.9394 37.8364 60.6992 36.6465 58.8527 35.019C57.0017 33.3916 55.5715 31.3263 54.5577 28.8234C53.544 26.3205 53.0371 23.312 53.0371 19.802C53.0371 16.2921 53.5938 13.3388 54.7026 10.8359C55.8113 8.333 57.3004 6.27631 59.1696 4.6658C61.0386 3.05529 63.211 1.87822 65.6821 1.12608C68.1531 0.378194 70.7553 0 73.4799 0C76.0505 0 78.3767 0.174224 80.4587 0.522672C82.5404 0.87112 84.2466 1.33855 85.5682 1.92072C85.5682 2.50712 85.541 3.25502 85.4821 4.16863C85.4234 5.08224 85.3283 6.04259 85.188 7.0497C85.0522 8.05679 84.8939 9.04265 84.7218 10.0115C84.5454 10.9804 84.3824 11.792 84.2241 12.4506H81.771L78.5578 4.16863C78.2093 3.9859 77.6436 3.84142 76.8652 3.73094C76.0867 3.62046 75.2902 3.56521 74.4711 3.56521C72.8735 3.56521 71.3754 3.86693 69.9725 4.47033C68.5695 5.07374 67.3249 6.0341 66.2341 7.3514C65.1435 8.6687 64.2881 10.36 63.6636 12.4251C63.039 14.4903 62.7267 16.9677 62.7267 19.8573C62.7267 25.0882 63.8355 29.1081 66.0577 31.9255C68.2752 34.7428 71.2939 36.1494 75.1091 36.1494C76.1999 36.1494 77.1232 36.0686 77.8835 35.9028C78.6438 35.7372 79.1598 35.512 79.4313 35.2187L82.2915 27.5401L82.3006 27.5316Z" fill="white"/>
<path d="M118.343 39.0516H98.2492V36.9694C99.0276 36.6762 99.9147 36.3746 100.906 36.0643C101.897 35.7542 102.902 35.5246 103.915 35.3802V4.22381H97.1405L93.4022 13.6022H91.0081C90.8542 12.8713 90.6959 11.9407 90.5419 10.8061C90.388 9.6715 90.2477 8.50292 90.1346 7.2961C90.0215 6.08928 89.9219 4.89095 89.8405 3.70538C89.7634 2.51556 89.7228 1.50421 89.7228 0.662842H126.875C126.875 1.54246 126.834 2.5623 126.757 3.73514C126.68 4.90371 126.58 6.09353 126.463 7.30035C126.345 8.50717 126.209 9.66725 126.055 10.7848C125.902 11.9024 125.743 12.8415 125.589 13.6107H123.195L119.457 4.2323H112.682V35.3759C113.696 35.5587 114.696 35.7796 115.691 36.0346C116.683 36.2895 117.57 36.5998 118.348 36.9651V39.0473L118.343 39.0516Z" fill="white"/>
<path d="M133.704 46.2331C134.482 46.0122 135.184 45.6851 135.808 45.2472C136.433 44.8096 136.967 44.3167 137.415 43.7685C137.863 43.2204 138.203 42.6339 138.438 42.0135C138.673 41.3931 138.768 40.7897 138.732 40.2034C138.185 39.5447 137.533 39.0135 136.777 38.614C136.017 38.2103 135.211 37.8832 134.351 37.6281C134.157 36.8591 134.125 36.0941 134.265 35.3251C134.401 34.5559 134.663 33.8463 135.053 33.1877C135.442 32.5289 135.899 31.9723 136.424 31.5134C136.949 31.0586 137.506 30.7739 138.089 30.6635C138.909 30.7018 139.705 30.876 140.484 31.1861C141.262 31.4964 141.963 31.9341 142.588 32.5034C143.213 33.0686 143.706 33.791 144.077 34.6707C144.448 35.5503 144.634 36.5744 144.634 37.7429C144.634 38.9116 144.389 40.0291 143.905 41.1976C143.416 42.3663 142.755 43.4541 141.918 44.4612C141.081 45.4682 140.076 46.3437 138.909 47.0958C137.741 47.8437 136.456 48.3663 135.053 48.6596L133.708 46.2459L133.704 46.2331ZM134.288 15.5187C134.288 14.2014 134.736 13.1433 135.632 12.336C136.528 11.5328 137.714 11.1292 139.194 11.1292C140.674 11.1292 141.882 11.5328 142.814 12.336C143.751 13.1391 144.217 14.2014 144.217 15.5187C144.217 16.836 143.751 17.8856 142.814 18.6718C141.877 19.4579 140.674 19.8489 139.194 19.8489C137.714 19.8489 136.528 19.4579 135.632 18.6718C134.736 17.8856 134.288 16.836 134.288 15.5187Z" fill="white"/>
<path d="M162.33 18.812C162.33 20.6774 162.737 22.1392 163.556 23.2015C164.374 24.2639 165.52 24.7909 167 24.7909V27.4254C165.52 27.4254 164.371 27.9821 163.556 29.0997C162.737 30.2174 162.33 31.5771 162.33 33.1833V45.8507C162.33 47.6057 161.863 49.0122 160.926 50.0745C159.989 51.1326 158.591 51.6639 156.722 51.6639H149.653V48.5363H151.698C152.748 48.5363 153.518 48.2814 154.007 47.7714C154.491 47.2615 154.735 46.4244 154.735 45.26V33.1961C154.735 31.9978 154.911 30.9779 155.26 30.1408C155.608 29.3036 156.071 28.6238 156.632 28.0925C157.196 27.5657 157.816 27.1662 158.5 26.8901C159.179 26.6181 159.872 26.4439 160.574 26.3716V26.0444C159.913 25.9721 159.23 25.7895 158.528 25.5004C157.826 25.2115 157.193 24.7739 156.632 24.1917C156.066 23.6095 155.608 22.8914 155.26 22.0373C154.911 21.1831 154.735 20.1718 154.735 19.0075V7.05824C154.735 5.93216 154.5 5.10353 154.034 4.57661C153.568 4.04969 152.766 3.78622 151.64 3.78622H149.653V0.658691H156.78C158.532 0.658691 159.895 1.14312 160.867 2.11197C161.84 3.08083 162.33 4.51712 162.33 6.41659V18.812Z" fill="white"/>
<path d="M8.66671 79.8073C8.84774 79.9773 9.10118 80.1345 9.42704 80.2791C9.75741 80.4234 10.1919 80.5 10.7304 80.5C11.6311 80.5 12.3823 80.2791 12.9798 79.8414C13.5771 79.4037 13.8758 78.7918 13.8758 78.0056C13.8758 77.4361 13.6812 76.9603 13.2965 76.5735C12.9119 76.1911 12.4231 75.8342 11.8347 75.5112C11.2464 75.1883 10.6128 74.8695 9.94297 74.5552C9.27316 74.2406 8.63956 73.8667 8.05121 73.4375C7.46286 73.0083 6.97408 72.4942 6.58939 71.9035C6.2047 71.3128 6.0101 70.5777 6.0101 69.6981C6.0101 68.9459 6.15944 68.2915 6.45362 67.7348C6.74779 67.1825 7.15512 66.7236 7.67105 66.3623C8.18698 66.0011 8.79796 65.7292 9.50397 65.5549C10.2055 65.3807 10.9703 65.2915 11.7895 65.2915C12.7897 65.2915 13.7174 65.3552 14.5773 65.487C15.4372 65.6188 16.2111 65.8226 16.8991 66.0989C16.881 66.4048 16.8538 66.7575 16.8131 67.1613C16.7723 67.5607 16.718 67.9559 16.6546 68.351C16.5914 68.7462 16.5188 69.1117 16.4465 69.4602C16.3741 69.8043 16.3016 70.0933 16.2383 70.327H15.229L14.0931 67.1655C13.894 67.0719 13.6043 66.987 13.2151 66.9106C12.8259 66.834 12.4276 66.7958 12.0203 66.7958C11.3278 66.7958 10.744 66.9658 10.2688 67.3056C9.78909 67.6456 9.55376 68.1385 9.55376 68.7844C9.55376 69.3709 9.74837 69.8639 10.1466 70.2717C10.5404 70.6796 11.0337 71.0536 11.6265 71.3894C12.2194 71.7292 12.8621 72.065 13.5636 72.3921C14.2605 72.7236 14.9077 73.1061 15.5006 73.5353C16.0935 73.9645 16.5867 74.4701 16.9806 75.048C17.3742 75.626 17.5734 76.3356 17.5734 77.1812C17.5734 78.7194 17.0212 79.9093 15.9124 80.7465C14.8082 81.5836 13.1789 82.0043 11.0337 82.0043C10.5087 82.0043 9.97918 81.9746 9.44967 81.9107C8.91562 81.8513 8.41328 81.7663 7.93807 81.6558C7.46286 81.5496 7.04198 81.4348 6.67086 81.3117C6.30427 81.1884 6.02821 81.0566 5.84717 80.9207C5.86528 80.568 5.906 80.1855 5.96937 79.7775C6.03272 79.3696 6.10514 78.9616 6.17755 78.5538C6.24996 78.1459 6.33142 77.7592 6.4129 77.3894C6.49435 77.0197 6.57581 76.6968 6.65729 76.4205H7.66652L8.67576 79.8117L8.66671 79.8073Z" fill="white"/>
<path d="M33.961 81.7196H27.4485V80.8441C27.6432 80.7379 27.8513 80.6358 28.0641 80.5424C28.2767 80.449 28.5212 80.3639 28.8017 80.2875V75.6132C28.8017 74.2873 28.6659 73.31 28.3944 72.6854C28.1228 72.0607 27.5979 71.7462 26.8103 71.7462C26.1541 71.7462 25.5974 71.9586 25.1403 72.3836C24.6833 72.8085 24.353 73.2973 24.1583 73.8539V80.2875C24.4209 80.3469 24.6516 80.4191 24.8598 80.4957C25.0635 80.5721 25.2808 80.687 25.5115 80.8441V81.7196H18.9989V80.8441C19.5058 80.5976 20.049 80.4106 20.6191 80.2875V66.2604L18.7501 66.0734V65.198C18.9944 65.1045 19.3113 65.0153 19.696 64.9217C20.0806 64.8283 20.488 64.7475 20.9134 64.6795C21.3388 64.6116 21.7642 64.5477 22.1942 64.4968C22.6196 64.4416 22.9952 64.3991 23.3256 64.3694H24.1628V72.5154H24.1855C24.3483 72.1626 24.5702 71.827 24.8507 71.5125C25.1269 71.1981 25.4436 70.9219 25.7966 70.6796C26.1496 70.4416 26.5298 70.2546 26.9416 70.1145C27.3489 69.9742 27.7834 69.9063 28.245 69.9063C28.9012 69.9063 29.4851 69.9785 30.0011 70.1273C30.517 70.276 30.947 70.531 31.2909 70.9005C31.6348 71.2703 31.8974 71.7675 32.0784 72.3922C32.2593 73.0167 32.35 73.8071 32.35 74.7633V80.2917C32.626 80.3512 32.9066 80.4234 33.1871 80.5C33.4633 80.5764 33.7257 80.6954 33.9746 80.8483V81.7238L33.961 81.7196Z" fill="white"/>
<path d="M46.2033 79.7818C46.072 80.0411 45.8639 80.3088 45.5742 80.5765C45.2845 80.8441 44.9361 81.0822 44.5152 81.2904C44.0988 81.4985 43.6145 81.6685 43.0669 81.8003C42.5194 81.9321 41.9264 81.9958 41.2837 81.9958C40.27 81.9958 39.3649 81.8513 38.5819 81.5709C37.7944 81.2862 37.1383 80.8782 36.6178 80.347C36.0928 79.8159 35.6945 79.1827 35.4274 78.4433C35.1559 77.704 35.0201 76.8753 35.0201 75.9489C35.0201 73.9815 35.5677 72.4772 36.6676 71.4488C37.7673 70.4162 39.2879 69.9021 41.2386 69.9021C42.0757 69.9021 42.8588 70.0083 43.5874 70.225C44.316 70.4417 44.9225 70.7944 45.4068 71.2873C45.8909 71.7803 46.2258 72.4262 46.416 73.225C46.6061 74.0239 46.5925 75.0013 46.3797 76.1571H38.8353C38.8534 77.3724 39.1839 78.3414 39.831 79.0637C40.4783 79.786 41.4331 80.1473 42.6958 80.1473C43.2389 80.1473 43.7955 80.0708 44.3794 79.9178C44.9631 79.7648 45.4157 79.5651 45.7462 79.3186L46.2122 79.7818H46.2033ZM41.1254 71.2194C40.7996 71.2194 40.5098 71.2746 40.2564 71.3809C40.0029 71.4913 39.7857 71.6868 39.5956 71.9716C39.4101 72.2562 39.2562 72.6387 39.143 73.1231C39.03 73.6075 38.9485 74.2194 38.8987 74.9589H42.8316C42.9448 73.7605 42.8722 72.8342 42.6143 72.1883C42.3564 71.5424 41.8585 71.2194 41.1254 71.2194Z" fill="white"/>
<path d="M60.7263 76.8752H61.7356C61.799 77.1217 61.8622 77.4191 61.9211 77.7633C61.9799 78.1074 62.0252 78.4814 62.0705 78.8724C62.1112 79.2633 62.1384 79.6543 62.1565 80.0368C62.1746 80.4233 62.1791 80.7676 62.1791 81.0735C61.6043 81.4135 60.8893 81.6514 60.0294 81.7917C59.1695 81.9318 58.2869 81.9999 57.3863 81.9999C56.0285 81.9999 54.793 81.8427 53.6888 81.5283C52.5845 81.2138 51.6386 80.7124 50.8602 80.0281C50.0818 79.344 49.4798 78.4729 49.0544 77.4191C48.629 76.3652 48.4163 75.0989 48.4163 73.6244C48.4163 72.1498 48.6516 70.9047 49.1178 69.8509C49.5839 68.797 50.2131 67.9302 50.9959 67.2546C51.779 66.579 52.6976 66.0818 53.7386 65.7673C54.7794 65.4529 55.8747 65.2957 57.0197 65.2957C58.1013 65.2957 59.0789 65.3678 59.9569 65.5166C60.8349 65.6611 61.55 65.8609 62.1067 66.1073C62.1067 66.3537 62.0931 66.6681 62.0705 67.0548C62.0433 67.4416 62.0071 67.8453 61.9482 68.266C61.8895 68.6866 61.8261 69.1031 61.7537 69.511C61.6813 69.919 61.6088 70.2631 61.5456 70.5394H60.5136L59.1604 67.0548C59.011 66.9784 58.7757 66.9147 58.4499 66.8721C58.1194 66.8254 57.7847 66.8042 57.4406 66.8042C56.7663 66.8042 56.1372 66.9317 55.5489 67.1866C54.9605 67.4416 54.4355 67.8453 53.974 68.3977C53.5169 68.9501 53.1547 69.6641 52.8923 70.5309C52.6298 71.3978 52.4985 72.4431 52.4985 73.6583C52.4985 75.8596 52.9647 77.5508 53.9014 78.7363C54.8339 79.922 56.1055 80.5127 57.7121 80.5127C58.1692 80.5127 58.5584 80.4787 58.8797 80.4106C59.2012 80.3427 59.4183 80.2448 59.5315 80.1217L60.7353 76.8922L60.7263 76.8752Z" fill="white"/>
<path d="M64.2429 75.9531C64.2429 75.0141 64.3968 74.1727 64.7 73.4247C65.0032 72.6769 65.4376 72.0438 66.0034 71.521C66.569 70.9984 67.2525 70.599 68.0535 70.3185C68.8546 70.0422 69.7643 69.9021 70.7825 69.9021C71.9275 69.9021 72.9187 70.0507 73.7424 70.3525C74.5706 70.6542 75.2495 71.0664 75.7835 71.5976C76.3175 72.1287 76.7067 72.7661 76.9512 73.5141C77.1955 74.2619 77.3178 75.0735 77.3178 75.9489C77.3178 76.8881 77.1684 77.7294 76.8742 78.4773C76.58 79.2252 76.15 79.8584 75.5844 80.381C75.0186 80.9037 74.3308 81.3032 73.5207 81.5836C72.7104 81.8598 71.7963 82 70.778 82C69.6647 82 68.6963 81.8513 67.877 81.5496C67.0578 81.2478 66.379 80.8356 65.8359 80.3045C65.2929 79.7733 64.8945 79.1359 64.6321 78.3881C64.3696 77.6401 64.2383 76.8285 64.2383 75.9531H64.2429ZM68.0535 75.9531C68.0535 76.6459 68.0988 77.279 68.1892 77.8568C68.2798 78.4348 68.4382 78.9234 68.669 79.3229C68.8999 79.7223 69.2121 80.0369 69.6013 80.2578C69.9951 80.483 70.502 80.5934 71.1266 80.5934C71.4886 80.5934 71.8144 80.5128 72.1086 80.3512C72.4027 80.1897 72.6562 79.9263 72.8734 79.5651C73.0862 79.204 73.2445 78.7279 73.3532 78.1331C73.4573 77.5425 73.5116 76.8115 73.5116 75.9531C73.5116 75.2435 73.4663 74.6061 73.3758 74.0367C73.2854 73.4673 73.1313 72.9828 72.9096 72.5834C72.6879 72.184 72.3891 71.8695 72.0135 71.6486C71.6379 71.4233 71.1628 71.3128 70.588 71.3128C70.1625 71.3128 69.7913 71.3936 69.4836 71.5551C69.1714 71.7165 68.9089 71.9801 68.6963 72.3412C68.4835 72.7024 68.3251 73.1783 68.2164 73.7732C68.1079 74.3639 68.0581 75.0948 68.0581 75.9531H68.0535Z" fill="white"/>
<path d="M87.22 79.4377C87.1387 79.7775 86.9893 80.1006 86.7766 80.4064C86.5639 80.7167 86.3104 80.9886 86.0163 81.2266C85.7221 81.4645 85.3826 81.6515 85.007 81.7918C84.6314 81.9319 84.2286 82 83.8032 82C82.183 82 80.9475 81.5199 80.1057 80.5595C79.2592 79.599 78.8385 78.1245 78.8385 76.1401C78.8385 75.1245 78.9877 74.2364 79.282 73.4758C79.5761 72.7151 79.988 72.0735 80.522 71.5507C81.0516 71.0281 81.6987 70.6372 82.45 70.3737C83.2057 70.1146 84.0385 69.9828 84.9572 69.9828C85.2515 69.9828 85.5003 69.9913 85.7085 70.0083C85.9167 70.0252 86.1022 70.0422 86.2742 70.0677C86.4463 70.0933 86.6091 70.1273 86.7676 70.1825C86.9215 70.2377 87.0979 70.2931 87.2971 70.3568V66.2732L85.4279 66.0862V65.2108C85.6587 65.1172 85.9709 65.0323 86.3738 64.9557C86.7766 64.8793 87.1975 64.8071 87.6409 64.7348C88.0846 64.6668 88.5189 64.5989 88.9445 64.5393C89.3699 64.4798 89.7229 64.4246 90.0034 64.3779H90.8407V80.0963L92.4609 80.279V81.0863C92.23 81.1926 91.9359 81.2945 91.5738 81.3881C91.2118 81.4815 90.8362 81.5666 90.4424 81.643C90.0487 81.7195 89.6686 81.7876 89.2975 81.8385C88.9309 81.8937 88.6232 81.9362 88.3742 81.966H87.5369L87.3151 79.4504H87.2156L87.22 79.4377ZM84.9844 80.1515C85.5592 80.1515 86.0435 79.9815 86.4372 79.6416C86.8308 79.3016 87.116 78.7279 87.2971 77.9122V71.7037C87.0843 71.5806 86.8174 71.4785 86.5005 71.4021C86.1837 71.3255 85.7854 71.2873 85.3102 71.2873C84.3599 71.2873 83.681 71.691 83.2691 72.4984C82.8618 73.3058 82.6537 74.4786 82.6537 76.017C82.6537 77.2619 82.8346 78.2648 83.1967 79.017C83.5587 79.769 84.1562 80.1473 84.9889 80.1473L84.9844 80.1515Z" fill="white"/>
<path d="M104.748 79.7818C104.617 80.0411 104.409 80.3088 104.119 80.5765C103.83 80.8441 103.481 81.0822 103.06 81.2904C102.639 81.4985 102.16 81.6685 101.612 81.8003C101.064 81.9321 100.471 81.9958 99.8288 81.9958C98.815 81.9958 97.9098 81.8513 97.1269 81.5709C96.3394 81.2862 95.6831 80.8782 95.1627 80.347C94.6377 79.8159 94.2395 79.1827 93.9725 78.4433C93.701 77.704 93.5652 76.8753 93.5652 75.9489C93.5652 73.9815 94.1127 72.4772 95.2125 71.4488C96.3123 70.4162 97.833 69.9021 99.7835 69.9021C100.621 69.9021 101.404 70.0083 102.132 70.225C102.861 70.4417 103.468 70.7944 103.952 71.2873C104.436 71.7803 104.771 72.4262 104.961 73.225C105.151 74.0239 105.138 75.0013 104.925 76.1571H97.3804C97.3985 77.3724 97.7289 78.3414 98.376 79.0637C99.0231 79.786 99.9781 80.1473 101.241 80.1473C101.784 80.1473 102.341 80.0708 102.924 79.9178C103.508 79.7648 103.961 79.5651 104.291 79.3186L104.757 79.7818H104.748ZM99.6704 71.2194C99.3445 71.2194 99.0548 71.2746 98.8014 71.3809C98.548 71.4913 98.3307 71.6868 98.1407 71.9716C97.9551 72.2562 97.8013 72.6387 97.6881 73.1231C97.5749 73.6075 97.4936 74.2194 97.4438 74.9589H101.377C101.49 73.7605 101.417 72.8342 101.159 72.1883C100.901 71.5424 100.404 71.2194 99.6704 71.2194Z" fill="white"/>
<path d="M113.08 79.2039C113.08 78.8044 112.926 78.4559 112.623 78.167C112.32 77.878 111.944 77.6061 111.492 77.3596C111.039 77.1132 110.55 76.8667 110.016 76.6201C109.482 76.3737 108.993 76.0848 108.541 75.7575C108.088 75.4262 107.713 75.0395 107.41 74.5933C107.106 74.1471 106.957 73.5989 106.957 72.953C106.957 72.4941 107.07 72.0734 107.301 71.6952C107.532 71.3169 107.844 70.9983 108.233 70.7391C108.627 70.4756 109.098 70.276 109.645 70.1272C110.193 69.9784 110.79 69.9062 111.428 69.9062C112.315 69.9062 113.135 69.97 113.899 70.1017C114.66 70.2334 115.329 70.4119 115.904 70.6456C115.841 71.1386 115.71 71.6654 115.511 72.2264C115.316 72.7872 115.126 73.2972 114.945 73.7604H114.108L113.076 71.4063C112.881 71.3297 112.673 71.2787 112.46 71.2575C112.247 71.232 112.008 71.2235 111.75 71.2235C111.256 71.2235 110.885 71.3596 110.632 71.6272C110.378 71.8949 110.252 72.2009 110.252 72.5408C110.252 72.9233 110.405 73.259 110.709 73.5437C111.012 73.8283 111.387 74.0919 111.84 74.3384C112.293 74.5848 112.781 74.8312 113.316 75.0777C113.85 75.3241 114.338 75.6047 114.791 75.919C115.244 76.2336 115.619 76.6074 115.922 77.0366C116.226 77.4658 116.379 77.9843 116.379 78.5835C116.379 79.6458 115.922 80.4787 115.004 81.0864C114.085 81.6939 112.858 81.9999 111.315 81.9999C110.528 81.9999 109.717 81.9234 108.88 81.7705C108.043 81.6175 107.323 81.4007 106.717 81.1246C106.749 80.5721 106.889 80.0111 107.133 79.4418C107.378 78.8724 107.64 78.3667 107.921 77.9206H108.758L109.962 80.4361C110.143 80.5594 110.342 80.6316 110.564 80.657C110.786 80.6827 110.994 80.6912 111.188 80.6912C111.664 80.6912 112.098 80.5594 112.492 80.3002C112.886 80.041 113.08 79.6755 113.08 79.2166V79.2039Z" fill="white"/>
<path d="M129.522 81.7195H121.068V80.844C121.394 80.7209 121.77 80.5933 122.186 80.4617C122.602 80.3299 123.028 80.2365 123.453 80.1727V67.0633H120.602L119.027 71.0111H118.018C117.95 70.7052 117.887 70.31 117.819 69.8339C117.755 69.358 117.696 68.8651 117.647 68.3551C117.597 67.8495 117.556 67.3439 117.525 66.8424C117.493 66.341 117.475 65.9161 117.475 65.5591H133.107C133.107 65.9288 133.089 66.358 133.057 66.8509C133.025 67.3439 132.985 67.8453 132.935 68.3509C132.885 68.8609 132.826 69.3495 132.763 69.8169C132.699 70.2845 132.632 70.6838 132.568 71.0068H131.559L129.988 67.0591H127.137V80.1684C127.563 80.245 127.988 80.3384 128.404 80.4446C128.821 80.5509 129.196 80.6827 129.522 80.8355V81.7109V81.7195Z" fill="white"/>
<path d="M132.889 75.9531C132.889 75.0141 133.043 74.1727 133.346 73.4247C133.65 72.6769 134.084 72.0438 134.65 71.521C135.216 70.9984 135.899 70.599 136.7 70.3185C137.501 70.0422 138.411 69.9021 139.429 69.9021C140.574 69.9021 141.565 70.0507 142.389 70.3525C143.217 70.6542 143.896 71.0664 144.43 71.5976C144.964 72.1287 145.353 72.7661 145.598 73.5141C145.842 74.2619 145.964 75.0735 145.964 75.9489C145.964 76.8881 145.815 77.7294 145.521 78.4773C145.226 79.2252 144.797 79.8584 144.231 80.381C143.665 80.9037 142.977 81.3032 142.167 81.5836C141.357 81.8598 140.443 82 139.424 82C138.311 82 137.343 81.8513 136.523 81.5496C135.704 81.2478 135.026 80.8356 134.482 80.3045C133.939 79.7733 133.541 79.1359 133.279 78.3881C133.016 77.6401 132.885 76.8285 132.885 75.9531H132.889ZM136.7 75.9531C136.7 76.6459 136.745 77.279 136.836 77.8568C136.926 78.4348 137.085 78.9234 137.315 79.3229C137.546 79.7223 137.859 80.0369 138.248 80.2578C138.642 80.483 139.148 80.5934 139.773 80.5934C140.135 80.5934 140.461 80.5128 140.755 80.3512C141.049 80.1897 141.303 79.9263 141.52 79.5651C141.733 79.204 141.891 78.7279 142 78.1331C142.104 77.5425 142.158 76.8115 142.158 75.9531C142.158 75.2435 142.113 74.6061 142.022 74.0367C141.932 73.4673 141.778 72.9828 141.556 72.5834C141.334 72.184 141.036 71.8695 140.66 71.6486C140.284 71.4233 139.809 71.3128 139.234 71.3128C138.809 71.3128 138.438 71.3936 138.13 71.5551C137.818 71.7165 137.555 71.9801 137.343 72.3412C137.13 72.7024 136.972 73.1783 136.863 73.7732C136.754 74.3639 136.705 75.0948 136.705 75.9531H136.7Z" fill="white"/>
<path d="M147.489 75.9531C147.489 75.0141 147.643 74.1727 147.946 73.4247C148.25 72.6769 148.684 72.0438 149.25 71.521C149.816 70.9984 150.499 70.599 151.3 70.3185C152.101 70.0422 153.011 69.9021 154.029 69.9021C155.174 69.9021 156.165 70.0507 156.989 70.3525C157.816 70.6542 158.495 71.0664 159.03 71.5976C159.564 72.1287 159.953 72.7661 160.198 73.5141C160.442 74.2619 160.564 75.0735 160.564 75.9489C160.564 76.8881 160.414 77.7294 160.12 78.4773C159.827 79.2252 159.397 79.8584 158.831 80.381C158.265 80.9037 157.577 81.3032 156.767 81.5836C155.958 81.8598 155.042 82 154.025 82C152.911 82 151.943 81.8513 151.124 81.5496C150.304 81.2478 149.626 80.8356 149.082 80.3045C148.539 79.7733 148.141 79.1359 147.879 78.3881C147.616 77.6401 147.485 76.8285 147.485 75.9531H147.489ZM151.3 75.9531C151.3 76.6459 151.345 77.279 151.436 77.8568C151.526 78.4348 151.685 78.9234 151.916 79.3229C152.146 79.7223 152.459 80.0369 152.848 80.2578C153.242 80.483 153.748 80.5934 154.373 80.5934C154.735 80.5934 155.061 80.5128 155.355 80.3512C155.65 80.1897 155.902 79.9263 156.12 79.5651C156.332 79.204 156.491 78.7279 156.6 78.1331C156.703 77.5425 156.759 76.8115 156.759 75.9531C156.759 75.2435 156.712 74.6061 156.623 74.0367C156.531 73.4673 156.378 72.9828 156.156 72.5834C155.935 72.184 155.636 71.8695 155.26 71.6486C154.885 71.4233 154.409 71.3128 153.835 71.3128C153.409 71.3128 153.038 71.3936 152.73 71.5551C152.418 71.7165 152.155 71.9801 151.943 72.3412C151.73 72.7024 151.572 73.1783 151.463 73.7732C151.354 74.3639 151.305 75.0948 151.305 75.9531H151.3Z" fill="white"/>
</g>
<defs>
<clipPath id="clip0_2491_85">
<rect width="167" height="82" fill="white"/>
</clipPath>
</defs>
</svg>
