<svg width="54" height="91" viewBox="0 0 54 91" fill="none" xmlns="http://www.w3.org/2000/svg">
<path d="M3.71875 69.0781H13.3281V80.6094H40.5156V23H50.125V80.6094C50.125 81.9219 49.8594 83.1719 49.3281 84.3594C48.8281 85.5156 48.1406 86.5312 47.2656 87.4062C46.4219 88.2812 45.4062 88.9688 44.2188 89.4688C43.0625 89.9688 41.8281 90.2188 40.5156 90.2188H13.3281C12.0156 90.2188 10.7656 89.9688 9.57812 89.4688C8.42188 88.9688 7.40625 88.2812 6.53125 87.4062C5.6875 86.5312 5 85.5156 4.46875 84.3594C3.96875 83.1719 3.71875 81.9219 3.71875 80.6094V69.0781Z" fill="white"/>
<path d="M0 0H53.7656V9.60938H31.6875V67.2188H22.0781V9.60938H0V0Z" fill="white"/>
<path d="M3.07751 31.2188V22.2188H50.0775V31.2188H3.07751Z" fill="white"/>
</svg>
