<svg width="157" height="107" viewBox="0 0 157 107" fill="none" xmlns="http://www.w3.org/2000/svg">
<path d="M3.34546 6.63984C2.44551 6.63984 1.66295 6.33456 0.99777 5.72399C0.33259 5.07528 0 4.31208 0 3.4344V3.26268C0 2.385 0.33259 1.6218 0.99777 0.973077C1.66295 0.324359 2.44551 0 3.34546 0H28.3484C29.2483 0 30.0309 0.324359 30.6961 0.973077C31.3613 1.6218 31.6939 2.385 31.6939 3.26268V3.4344C31.6939 4.31208 31.3613 5.07528 30.6961 5.72399C30.0309 6.33456 29.2483 6.63984 28.3484 6.63984H20.4836C20.1706 6.63984 20.0141 6.81156 20.0141 7.155V38.5225C20.0141 39.4002 19.6815 40.1634 19.0163 40.8121C18.3511 41.4608 17.5686 41.7852 16.6686 41.7852H15.0252C14.1253 41.7852 13.3427 41.4608 12.6775 40.8121C12.0124 40.1634 11.6798 39.4002 11.6798 38.5225V7.155C11.6798 6.81156 11.5233 6.63984 11.2102 6.63984H3.34546Z" fill="white"/>
<path d="M35.8395 41.7852C34.9395 41.7852 34.1569 41.4608 33.4918 40.8121C32.8266 40.1634 32.494 39.4002 32.494 38.5225V26.9028V15.2831C32.494 14.4054 32.8266 13.6422 33.4918 12.9935C34.1569 12.3448 34.9395 12.0204 35.8395 12.0204H37.0133C37.9133 12.0204 38.6958 12.3448 39.361 12.9935C40.0262 13.6422 40.3588 14.4054 40.3588 15.2831V17.6871C40.3588 17.7253 40.3783 17.7444 40.4175 17.7444C40.4957 17.7444 40.5348 17.7253 40.5348 17.6871C41.6696 16.1608 43.1564 14.9206 44.9955 13.9666C46.8345 12.9744 48.8496 12.3638 51.0408 12.1349C51.8625 12.0586 52.5668 12.3257 53.1537 12.9362C53.7406 13.5086 54.0341 14.1955 54.0341 14.9969C54.0341 15.7982 53.7406 16.4851 53.1537 17.0575C52.5668 17.6299 51.8625 17.9543 51.0408 18.0306C44.1151 18.5648 40.6522 21.9992 40.6522 28.3338V38.5225C40.6522 39.4002 40.3196 40.1634 39.6545 40.8121C38.9893 41.4608 38.2067 41.7852 37.3068 41.7852H35.8395Z" fill="white"/>
<path d="M65.3236 41.3273L55.5807 15.0541C55.3459 14.2909 55.4438 13.604 55.8742 12.9935C56.3046 12.3448 56.9306 12.0204 57.7523 12.0204H59.5131C60.4913 12.0204 61.3913 12.3257 62.2129 12.9362C63.0346 13.5086 63.5629 14.2528 63.7976 15.1686L69.256 33.8861C69.256 33.9242 69.2756 33.9433 69.3147 33.9433C69.3538 33.9433 69.3734 33.9242 69.3734 33.8861L75.6535 15.1114C75.9665 14.1955 76.5339 13.4514 77.3556 12.879C78.1773 12.3066 79.0772 12.0204 80.0554 12.0204H81.464C82.2857 12.0204 82.9118 12.3448 83.3422 12.9935C83.8117 13.6422 83.89 14.3291 83.577 15.0541L69.256 51.3443C68.9039 52.2601 68.3169 52.9851 67.4953 53.5194C66.6736 54.0918 65.7541 54.378 64.7367 54.378H63.3281C62.5455 54.378 61.9195 54.0536 61.4499 53.4049C61.0195 52.7943 60.9608 52.1265 61.2739 51.4015L65.3236 42.2431C65.4019 42.0905 65.441 41.9378 65.441 41.7852C65.441 41.6325 65.4019 41.4799 65.3236 41.3273Z" fill="white"/>
<path d="M89.5659 41.7852C88.6659 41.7852 87.8834 41.4608 87.2182 40.8121C86.553 40.1634 86.2204 39.4002 86.2204 38.5225V3.26268C86.2204 2.385 86.553 1.6218 87.2182 0.973077C87.8834 0.324359 88.6659 0 89.5659 0H91.0332C92.0505 0 92.9896 0.26712 93.8504 0.801359C94.7112 1.3356 95.3373 2.04156 95.7286 2.91924L106 24.5559C106 24.5941 106.019 24.6132 106.058 24.6132C106.098 24.6132 106.117 24.5941 106.117 24.5559L116.388 2.91924C116.78 2.04156 117.406 1.3356 118.266 0.801359C119.127 0.26712 120.066 0 121.084 0H122.786C123.686 0 124.468 0.324359 125.133 0.973077C125.799 1.6218 126.131 2.385 126.131 3.26268V38.5225C126.131 39.4002 125.799 40.1634 125.133 40.8121C124.468 41.4608 123.686 41.7852 122.786 41.7852H121.494C120.595 41.7852 119.812 41.4608 119.147 40.8121C118.482 40.1634 118.149 39.4002 118.149 38.5225V13.6231C118.149 13.585 118.129 13.5659 118.09 13.5659C118.051 13.5659 118.032 13.585 118.032 13.6231L110.989 28.3338C110.558 29.2115 109.893 29.9365 108.993 30.5089C108.132 31.0431 107.213 31.3103 106.234 31.3103H105.882C104.904 31.3103 103.965 31.0431 103.065 30.5089C102.204 29.9365 101.559 29.2115 101.128 28.3338L94.0852 13.6231C94.0852 13.585 94.0656 13.5659 94.0265 13.5659C93.9874 13.5659 93.9678 13.585 93.9678 13.6231V38.5225C93.9678 39.4002 93.6352 40.1634 92.97 40.8121C92.3048 41.4608 91.5223 41.7852 90.6223 41.7852H89.5659Z" fill="white"/>
<path d="M143.732 16.7713C141.737 16.7713 140.191 17.3246 139.096 18.4313C138.039 19.4998 137.374 21.236 137.1 23.6401C137.1 23.9454 137.257 24.098 137.57 24.098H149.073C149.386 24.098 149.543 23.9454 149.543 23.6401C149.386 19.0609 147.45 16.7713 143.732 16.7713ZM145.2 42.3576C140.074 42.3576 136.122 41.0601 133.344 38.4653C130.605 35.8322 129.235 31.9781 129.235 26.9028C129.235 21.8657 130.468 18.0306 132.933 15.3976C135.398 12.7645 138.959 11.448 143.615 11.448C152.302 11.448 156.762 16.2562 156.997 25.8725C157.036 26.7883 156.703 27.5515 155.999 28.1621C155.295 28.7726 154.473 29.0779 153.534 29.0779H137.511C137.159 29.0779 137.022 29.2496 137.1 29.5931C137.374 32.1498 138.235 34.0196 139.683 35.2026C141.17 36.3474 143.322 36.9198 146.139 36.9198C147.9 36.9198 149.856 36.6336 152.008 36.0612C152.712 35.8704 153.358 35.9849 153.945 36.4046C154.571 36.8244 154.884 37.3968 154.884 38.1218C154.884 38.9995 154.61 39.7818 154.062 40.4687C153.554 41.1174 152.869 41.5181 152.008 41.6707C149.817 42.1286 147.547 42.3576 145.2 42.3576Z" fill="white"/>
<path d="M64.9936 107L68.595 91.8161L56.5165 81.6035L72.4734 80.2526L78.6789 65.9333L84.8844 80.2526L100.841 81.6035L88.7628 91.8161L92.3643 107L78.6789 98.9488L64.9936 107Z" fill="white"/>
<path d="M34.1429 106.888L36.8129 95.6312L27.8581 88.0597L39.6883 87.0582L44.2889 76.4422L48.8895 87.0582L60.7197 88.0597L51.7649 95.6312L54.4349 106.888L44.2889 100.919L34.1429 106.888Z" fill="white"/>
<path d="M104.222 106.367L106.892 95.1095L97.9373 87.5381L109.767 86.5366L114.368 75.9205L118.969 86.5366L130.799 87.5381L121.844 95.1095L124.514 106.367L114.368 100.398L104.222 106.367Z" fill="white"/>
<path d="M8.99036 105.323L11.0394 96.684L4.16715 90.8734L13.2461 90.1048L16.7768 81.9576L20.3075 90.1048L29.3865 90.8734L22.5142 96.684L24.5633 105.323L16.7768 100.742L8.99036 105.323Z" fill="white"/>
<path d="M133.941 105.547L135.99 96.9076L129.118 91.097L138.197 90.3284L141.727 82.1812L145.258 90.3284L154.337 91.097L147.465 96.9076L149.514 105.547L141.727 100.966L133.941 105.547Z" fill="white"/>
</svg>
