<svg width="283" height="46" viewBox="0 0 283 46" fill="none" xmlns="http://www.w3.org/2000/svg">
<path d="M57.2251 0.543701L44.0717 43.0413H36.4479L28.6693 17.5523L20.7876 43.0413H13.1122L0 0.543701H9.76964L17.3935 27.4977L25.6466 0.543701H32.2697L40.1515 27.9384L48.1364 0.543701H57.2251Z" fill="white"/>
<path d="M67.8511 40.909C65.1207 39.1575 62.8991 36.5139 61.4653 33.31C59.9071 29.734 59.1348 25.7703 59.2163 21.7684C59.1348 17.7665 59.9071 13.8029 61.4653 10.2269C62.8946 7.02433 65.1225 4.38986 67.8614 2.6636C70.8729 0.821555 74.2448 -0.0932349 77.6517 0.00750593C81.0552 -0.0922547 84.4236 0.822538 87.4317 2.6636C90.168 4.38595 92.3902 7.0221 93.8072 10.2269C95.3451 13.81 96.1063 17.7707 96.0252 21.7684C96.1068 25.7703 95.3344 29.734 93.7763 33.31C92.3396 36.5156 90.1144 39.1594 87.3801 40.909C84.3926 42.7585 81.0407 43.6819 77.6517 43.5889C74.239 43.6904 70.8619 42.767 67.8511 40.909ZM84.1614 31.6782C85.7295 29.4152 86.5135 26.104 86.5135 21.7684C86.5135 17.4329 85.7191 14.1337 84.1407 11.8825C83.3211 10.8238 82.3171 9.97685 81.1945 9.39694C80.0718 8.81704 78.8558 8.51728 77.6259 8.51728C76.396 8.51728 75.18 8.81704 74.0574 9.39694C72.9347 9.97685 71.9307 10.8238 71.1111 11.8825C69.543 14.1217 68.759 17.421 68.759 21.8042C68.759 26.1873 69.543 29.4985 71.1111 31.7497C71.9291 32.8157 72.9336 33.6691 74.0585 34.2536C75.1833 34.8381 76.4027 35.1403 77.6362 35.1403C78.8697 35.1403 80.0892 34.8381 81.214 34.2536C82.3388 33.6691 83.3434 32.8157 84.1614 31.7497V31.6782Z" fill="white"/>
<path d="M138.838 0.543701V43.0413H130.482V20.7443L123.384 35.9901H117.194L110.138 21.1017V43.0413H101.792V0.543701H109.354L120.423 24.7225L131.441 0.543701H138.838Z" fill="white"/>
<path d="M145.668 0.543701H171.851V9.10753H155.035V17.183H170.819V25.6873H155.004V34.4893H171.851V43.0413H145.668V0.543701Z" fill="white"/>
<path d="M209.67 0.543701V43.0413H202.573L185.757 18.7552V43.0413H176.833V0.543701H183.828L200.736 24.8416V0.543701H209.67Z" fill="white"/>
<path d="M214.561 0.00683594H219.306V21.1961H214.561V0.00683594Z" fill="white"/>
<path d="M239.052 0.00683594V21.1961H235.514L227.137 9.08283V21.1961H222.68V0.00683594H226.167L234.575 12.1201V0.00683594H239.052Z" fill="white"/>
<path d="M220.049 28.2001H214.561V23.7217H230.386V28.2001H224.898V44.8752H220.049V28.2001Z" fill="white"/>
<path d="M232.367 23.7217H245.407V28.0095H237.019V32.0473H244.88V36.2756H237.019V40.6707H245.407V44.9347H232.367V23.7217Z" fill="white"/>
<path d="M251.844 43.8263C250.457 42.9562 249.326 41.6295 248.594 40.0149C247.849 38.2361 247.462 36.2856 247.462 34.3096C247.462 32.3336 247.849 30.3832 248.594 28.6044C249.329 26.9955 250.46 25.6735 251.844 24.8049C253.377 23.8662 255.092 23.3986 256.827 23.447C258.007 23.4455 259.18 23.6585 260.303 24.0783C261.305 24.4303 262.237 25.0049 263.048 25.7696L261.603 29.6763C260.26 28.519 258.637 27.8774 256.961 27.8421C256.322 27.7939 255.683 27.9147 255.091 28.1955C254.499 28.4762 253.971 28.9094 253.546 29.462C252.655 30.8555 252.22 32.5689 252.319 34.2977C252.209 36.028 252.629 37.7478 253.505 39.1573C253.929 39.7113 254.457 40.1462 255.049 40.429C255.641 40.7118 256.28 40.8349 256.92 40.7891C258.595 40.7537 260.219 40.1122 261.562 38.9548L263.037 42.8615C262.227 43.6263 261.295 44.2008 260.293 44.5529C259.17 44.9727 257.997 45.1857 256.816 45.1841C255.086 45.2306 253.373 44.763 251.844 43.8263Z" fill="white"/>
<path d="M282.443 23.7217V44.9109H277.759V36.3471H270.259V44.9109H265.575V23.7217H270.259V31.952H277.759V23.7217H282.443Z" fill="white"/>
</svg>
