<svg width="6" height="357" viewBox="0 0 6 357" fill="none" xmlns="http://www.w3.org/2000/svg">
<path d="M2.66669 -2.54313e-06C1.19393 -2.47876e-06 2.02807e-05 1.1939 2.03451e-05 2.66666C2.04094e-05 4.13942 1.19393 5.33333 2.66669 5.33333C4.13945 5.33333 5.33335 4.13942 5.33335 2.66666C5.33335 1.1939 4.13945 -2.60751e-06 2.66669 -2.54313e-06ZM2.6667 351C1.19394 351 3.56234e-05 352.194 3.56878e-05 353.667C3.57521e-05 355.139 1.19394 356.333 2.6667 356.333C4.13946 356.333 5.33337 355.139 5.33337 353.667C5.33337 352.194 4.13946 351 2.6667 351ZM2.66669 2.66666L2.16669 2.66666L2.1667 353.667L2.6667 353.667L3.1667 353.667L3.16669 2.66666L2.66669 2.66666Z" fill="white"/>
</svg>
